<?xml version="1.0" encoding="UTF-8" standalone="no"?>
<svg width="27px" height="30px" viewBox="0 0 27 30" version="1.1" xmlns="http://www.w3.org/2000/svg" xmlns:xlink="http://www.w3.org/1999/xlink">
    <!-- Generator: Sketch 50.2 (55047) - http://www.bohemiancoding.com/sketch -->
    <title>avatar</title>
    <desc>Created with Sketch.</desc>
    <defs></defs>
    <g id="Symbols" stroke="none" stroke-width="1" fill="none" fill-rule="evenodd">
        <g id="Header-!!!" transform="translate(-1140.000000, -105.000000)" fill="#4EB600" fill-rule="nonzero">
            <g id="Header">
                <g id="Login" transform="translate(1132.781250, 100.000000)">
                    <g id="avatar">
                        <g transform="translate(8.005556, 5.000000)">
                            <path d="M12.6609601,16.1614907 C12.6920376,16.1614907 12.7231151,16.1614907 12.760408,16.1614907 C12.772839,16.1614907 12.78527,16.1614907 12.797701,16.1614907 C12.8163475,16.1614907 12.8412095,16.1614907 12.8598559,16.1614907 C14.6809955,16.1304348 16.1540675,15.4906832 17.2417788,14.2670807 C19.6347438,11.5714286 19.2369522,6.95031056 19.1934438,6.50931677 C19.0380564,3.19875776 17.4717521,1.61490683 16.1789294,0.875776398 C15.215528,0.322981366 14.0905236,0.0248447205 12.834994,0 L12.7914855,0 C12.78527,0 12.772839,0 12.7666235,0 L12.7293306,0 C12.0394108,0 10.6844332,0.111801242 9.3853951,0.850931677 C8.08014148,1.59006211 6.48897516,3.17391304 6.33358782,6.50931677 C6.29007937,6.95031056 5.89228778,11.5714286 8.28525276,14.2670807 C9.36674862,15.4906832 10.8398206,16.1304348 12.6609601,16.1614907 Z M7.99312457,6.66459627 C7.99312457,6.64596273 7.99934006,6.62732919 7.99934006,6.61490683 C8.20445135,2.16149068 11.3681375,1.68322981 12.7231151,1.68322981 L12.7479771,1.68322981 C12.760408,1.68322981 12.7790545,1.68322981 12.797701,1.68322981 C14.4758842,1.72049689 17.3287957,2.40372671 17.521476,6.61490683 C17.521476,6.63354037 17.521476,6.65217391 17.5276915,6.66459627 C17.533907,6.70807453 17.9689915,10.931677 15.9924646,13.1552795 C15.2093125,14.0372671 14.1651096,14.4720497 12.7914855,14.484472 C12.7790545,14.484472 12.772839,14.484472 12.760408,14.484472 C12.7479771,14.484472 12.7417616,14.484472 12.7293306,14.484472 C11.361922,14.4720497 10.3115036,14.0372671 9.53456694,13.1552795 C7.56425552,10.9440994 7.98690908,6.70186335 7.99312457,6.66459627 Z" id="Shape"></path>
                            <path d="M25.5332471,23.826087 C25.5332471,23.8198758 25.5332471,23.8136646 25.5332471,23.8074534 C25.5332471,23.757764 25.5270316,23.7080745 25.5270316,23.6521739 C25.4897386,22.4223602 25.4089372,19.5465839 22.711413,18.6273292 C22.6927666,18.621118 22.6679046,18.6149068 22.6492581,18.6086957 C19.8460706,17.8944099 17.5152605,16.2795031 17.4903986,16.2608696 C17.1112535,15.9937888 16.589152,16.0869565 16.3218858,16.4658385 C16.0546196,16.8447205 16.147852,17.3664596 16.5269971,17.6335404 C16.6326605,17.7080745 19.1064268,19.4285714 22.2017426,20.2236025 C23.6499526,20.7391304 23.8115554,22.2857143 23.8550638,23.7018634 C23.8550638,23.757764 23.8550638,23.8074534 23.8612793,23.8571429 C23.8674948,24.4161491 23.8302019,25.2795031 23.730754,25.7763975 C22.723844,26.3478261 18.7770057,28.3229814 12.772839,28.3229814 C6.79353433,28.3229814 2.82183402,26.3416149 1.80870859,25.7701863 C1.7092607,25.2732919 1.66575224,24.4099379 1.67818323,23.8509317 C1.67818323,23.8012422 1.68439872,23.7515528 1.68439872,23.6956522 C1.72790718,22.2795031 1.88951001,20.7329193 3.33771998,20.2173913 C6.43303571,19.4223602 8.9068021,17.6956522 9.01246549,17.6273292 C9.39161059,17.3602484 9.484843,16.8385093 9.21757678,16.4596273 C8.95031056,16.0807453 8.42820911,15.9875776 8.04906401,16.2546584 C8.02420204,16.2732919 5.70582298,17.8881988 2.89020445,18.6024845 C2.86534248,18.6086957 2.846696,18.6149068 2.82804952,18.621118 C0.130525362,19.5465839 0.0497239476,22.4223602 0.0124309869,23.6459627 C0.0124309869,23.7018634 0.0124309869,23.7515528 0.00621549344,23.8012422 C0.00621549344,23.8074534 0.00621549344,23.8136646 0.00621549344,23.8198758 C-3.35755729e-15,24.1428571 -0.00621549344,25.8012422 0.323205659,26.6335404 C0.385360594,26.7950311 0.497239476,26.931677 0.646411318,27.0248447 C0.832876121,27.1490683 5.30181591,29.9937888 12.7790545,29.9937888 C20.2562931,29.9937888 24.7252329,27.1428571 24.9116977,27.0248447 C25.0546541,26.931677 25.1727484,26.7950311 25.2349034,26.6335404 C25.5456781,25.8074534 25.5394626,24.1490683 25.5332471,23.826087 Z" id="Shape"></path>
                        </g>
                    </g>
                </g>
            </g>
        </g>
    </g>
</svg>