<?xml version="1.0" encoding="UTF-8" standalone="no"?>
<svg width="103px" height="54px" viewBox="0 0 103 54" version="1.1" xmlns="http://www.w3.org/2000/svg" xmlns:xlink="http://www.w3.org/1999/xlink">
    <!-- Generator: Sketch 50.2 (55047) - http://www.bohemiancoding.com/sketch -->
    <title>Shape</title>
    <desc>Created with Sketch.</desc>
    <defs></defs>
    <g id="Symbols" stroke="none" stroke-width="1" fill="none" fill-rule="evenodd">
        <g id="footer-3" transform="translate(-1227.000000, -203.000000)" fill="#FFFFFF" fill-rule="nonzero">
            <g id="Group-12">
                <g id="Footer-2+">
                    <g id="Logo" transform="translate(1227.000000, 203.000000)">
                        <g id="Blaze-white">
                            <path d="M79.6,30.8 C85.2,26.6 87.9,23 87.6,22.3 C87.3,20.4 86.2,17.9 84.3,17.5 C83.4,17.7 79.6,19.3 77.9,19.5 C78.4,19 76.7,16.5 75.9,16.6 C75.4,16.6 73.3,17.8 73,19.7 C72.8,20.5 73.7,21.7 74.1,22.1 C73.6,22.7 73.2,23.3 72.7,23.9 C71.1,25.9 69.3,27.7 67.4,29.4 C66.9,29.8 66.4,30.3 65.8,30.6 C65.7,30.7 65.2,31.1 65,30.9 C64.2,30.5 69,23.2 70.2,21.5 C70.6,20.9 69,19.6 67,19.2 C66.6,18.2 64.8,17 63.5,17 C59.4,17 55.2,20.7 52.7,24.6 C52.3,25.2 51.9,25.8 51.4,26.3 C51.2,26.5 51,26.7 50.8,26.9 C48.3,29.8 43.3,34.4 41.5,33.2 C39.7,32 40.2,30 41.7,26.9 C46.5,24.4 57.6,13.5 58.3,8.6 C58.5,7.4 55.8,4.6 53.6,4.9 C49.3,5.5 35,24.3 35.6,30.8 C35.9,34 40.1,37.1 41.9,37.1 C44.3,37 48,33.2 50.6,30.2 C50.6,30.4 50.6,30.6 50.6,30.8 C50.8,33 54,35.8 55.6,35.5 C57.1,35.3 59,32 59.7,31.2 C59.9,33.2 61.8,35.4 63.6,35.6 C64.1,35.6 64.6,35.4 65,35.2 C65.6,34.8 66.2,34.4 66.7,33.9 C68,32.7 69.1,31.4 70.2,30.1 C72,27.9 73.6,25.6 75.5,23.6 C75.6,23.5 75.7,23.3 75.8,23.2 C75.8,23.2 76,22.9 76.1,22.9 C78.9,23.1 81.3,21.6 82.8,21.3 C79.5,25.3 76.2,28.8 74,30.2 C71.2,30.5 71.1,31.6 70.9,32.4 C70.6,34.5 71.2,35.9 71.7,35.6 C72.5,35.2 73.9,34.4 74.6,34 C78.5,34.3 83.2,35 84.3,36.3 C85.8,37.8 85.7,35.5 83.8,32.5 C83.2,31.3 81.5,31 79.6,30.8 Z M54.9,8.5 C57.2,8.6 47.3,21.3 42.6,25.1 C45.2,19.6 53.7,8.4 54.9,8.5 Z M56.3,30.7 C54.2,30.7 61.1,19.5 65.9,20.6 C65.7,20.8 57.7,30.7 56.3,30.7 Z M101,32.1 C99.5,33.7 98.3,34.9 96,35.4 C94.6,35.7 93.5,35.7 92.1,35.3 C91,34.9 90.1,34.3 89.2,33.5 C88,32.4 86.8,30.9 86.8,29.2 C86.8,23.7 92.5,17.2 96.2,16.8 C98.5,16.5 102.1,19.5 102,21.8 C101.8,23.8 99.1,28.9 95.3,29.1 C94.1,29.3 92.3,28 92,27.3 C91.5,28.8 91.3,30.5 92.7,31.5 C95.8,33.6 98.2,32 100.9,30.2 C103.5,28.6 102.2,30.8 101,32.1 Z M92.6,26.1 C95.4,27.3 99.6,20 98.3,20 C96.7,20.2 93.1,24.8 92.6,26.1 Z M29,8.3 C29.1,8.4 29.1,8.4 29,8.3 C29.1,8.4 29.1,8.4 29,8.3 Z M29.2,8.7 C29.2,8.7 29.2,8.8 29.2,8.7 C29.2,8.8 29.2,8.7 29.2,8.7 Z M29.2,8.6 C29.1,8.6 29.1,8.6 29.2,8.6 C29.1,8.6 29.1,8.6 29.2,8.6 Z M27.5,10.7 C27.5,10.7 27.5,10.6 27.5,10.7 C27.5,10.6 27.5,10.7 27.5,10.7 Z M26.7,11.5 C26.8,11.4 26.8,11.4 26.9,11.3 C26.8,11.4 26.8,11.4 26.7,11.5 Z M28.9,8.1 C28.9,8.1 29,8.2 28.9,8.1 C29,8.2 28.9,8.1 28.9,8.1 Z M26.3,12 C26.2,12.1 26.2,12.1 26.1,12.2 C26.2,12.1 26.2,12.1 26.3,12 Z M28.7,9.5 C28.7,9.5 28.6,9.6 28.6,9.6 C28.6,9.6 28.6,9.5 28.7,9.5 Z M27.5,7 C27.4,7 27.4,7 27.3,6.9 C27.4,6.9 27.5,7 27.5,7 Z M26.7,6.8 C26.6,6.8 26.6,6.8 26.5,6.8 C26.6,6.7 26.6,6.7 26.7,6.8 Z M34,4.6 C34.1,4.6 34.1,4.6 34.2,4.7 C34.1,4.7 34.1,4.6 34,4.6 Z M26,6.7 C26.1,6.7 26.2,6.7 26.2,6.7 C26.1,6.7 26.1,6.7 26,6.7 Z M28.2,7.3 C28.2,7.3 28.1,7.2 28.1,7.2 C28.1,7.3 28.1,7.3 28.2,7.3 Z M28.6,7.7 C28.6,7.7 28.7,7.8 28.7,7.8 C28.6,7.7 28.6,7.7 28.6,7.7 Z M28.3,7.4 C28.3,7.4 28.4,7.5 28.4,7.5 C28.4,7.5 28.4,7.5 28.3,7.4 Z M28.8,8 C28.8,8 28.7,7.9 28.7,7.9 C28.8,7.9 28.8,8 28.8,8 Z M27.7,7.1 C27.8,7.1 27.8,7.2 27.9,7.2 C27.8,7.1 27.8,7.1 27.7,7.1 Z M35.8,6.1 C35.9,6.3 35.9,6.5 36,6.8 C35.9,6.6 35.8,6.3 35.8,6.1 Z M35,9.9 C35,9.8 35.1,9.8 35.1,9.7 C35.1,9.8 35,9.9 35,9.9 Z M34.6,10.5 C34.6,10.6 34.6,10.6 34.6,10.5 C34.6,10.6 34.6,10.6 34.6,10.5 Z M32.6,12.6 C32.7,12.5 32.7,12.5 32.8,12.4 C32.7,12.5 32.7,12.6 32.6,12.6 Z M35.5,9.1 C35.5,9.1 35.4,9.2 35.4,9.2 C35.4,9.2 35.4,9.2 35.5,9.1 Z M34.1,11.1 C34.1,11.2 34,11.2 34,11.3 C34,11.2 34.1,11.2 34.1,11.1 Z M25.8,6.7 C25.5,6.7 25.3,6.8 25.1,7 C25.2,6.9 25.4,6.8 25.5,6.7 C25.6,6.7 25.7,6.7 25.8,6.7 Z M35.7,8.4 C35.7,8.4 35.7,8.5 35.7,8.5 C35.7,8.5 35.7,8.5 35.7,8.4 Z M34.6,4.9 C34.8,5 34.9,5.1 35.1,5.2 C35,5.1 34.8,5 34.6,4.9 Z M35.9,7.8 C35.9,7.9 35.9,7.9 35.9,8 C35.9,7.9 35.9,7.8 35.9,7.8 Z M30.3,14.5 C30.4,14.5 30.4,14.4 30.5,14.4 C30.4,14.4 30.4,14.5 30.3,14.5 Z M27,16.6 C26.9,16.6 26.9,16.7 26.8,16.7 C26.9,16.7 26.9,16.7 27,16.6 Z M27.9,16.1 C27.9,16.1 27.8,16.2 27.8,16.2 C27.8,16.1 27.9,16.1 27.9,16.1 Z M24.7,14 C24.8,13.9 24.8,13.8 24.9,13.8 C24.8,13.9 24.7,14 24.7,14 Z M28.6,15.7 C28.7,15.7 28.7,15.6 28.8,15.6 C28.7,15.6 28.6,15.6 28.6,15.7 Z M32.1,13.1 C32,13.1 32,13.2 31.9,13.2 C32,13.2 32.1,13.2 32.1,13.1 Z M31.3,13.8 C31.3,13.8 31.2,13.9 31.1,13.9 C31.2,13.9 31.2,13.8 31.3,13.8 Z M25.6,12.9 C25.5,12.9 25.5,13 25.6,12.9 C25.5,13 25.5,12.9 25.6,12.9 Z M29.5,15.1 C29.5,15.1 29.5,15 29.5,15.1 C29.5,15 29.5,15.1 29.5,15.1 Z M27,6.8 C27.1,6.8 27.1,6.8 27.2,6.8 C27.1,6.8 27,6.8 27,6.8 Z M24.9,7.1 C24.8,7.1 24.8,7.2 24.7,7.2 C24.8,7.2 24.9,7.2 24.9,7.1 Z M34.5,17.8 C34.3,18 34,18.2 33.8,18.3 C34,18.1 34.3,17.9 34.5,17.8 Z M35.4,17 C35.6,16.8 35.8,16.6 36,16.4 C35.8,16.6 35.6,16.8 35.4,17 Z M33,18.9 C33.2,18.7 33.5,18.6 33.7,18.4 C33.5,18.6 33.2,18.7 33,18.9 Z M35.3,17.1 C35.1,17.3 34.9,17.5 34.6,17.7 C34.9,17.5 35.1,17.3 35.3,17.1 Z M21.4,10.6 C21.5,10.5 21.6,10.4 21.6,10.3 C21.5,10.5 21.5,10.5 21.4,10.6 Z M22.4,9.5 C22.3,9.6 22.3,9.6 22.2,9.7 C22.3,9.6 22.4,9.6 22.4,9.5 Z M20.3,11.8 C20.2,11.9 20.1,12 20,12.1 C20.1,12 20.2,11.9 20.3,11.8 Z M19.3,13 C19.4,12.9 19.5,12.7 19.6,12.6 C19.5,12.7 19.4,12.9 19.3,13 Z M22.8,9.1 C22.9,9 23,8.9 23,8.9 C23,9 22.9,9 22.8,9.1 Z M24.3,7.6 C24.4,7.5 24.4,7.5 24.5,7.4 C24.5,7.5 24.4,7.6 24.3,7.6 Z M23.9,8.1 C24,8 24,8 24.1,7.9 C24,7.9 24,8 23.9,8.1 Z M23.6,8.3 C23.5,8.4 23.4,8.4 23.4,8.5 C23.4,8.5 23.5,8.4 23.6,8.3 Z M20.7,11.4 C20.8,11.3 20.9,11.2 21,11.1 C20.9,11.2 20.8,11.3 20.7,11.4 Z M15.3,17.9 C15.2,18 15.1,18.2 15,18.4 C15.1,18.2 15.2,18 15.3,17.9 Z M14.6,18.8 C14.5,19 14.4,19.1 14.3,19.3 C14.4,19.1 14.5,19 14.6,18.8 Z M18.6,13.8 C18.7,13.7 18.8,13.5 18.9,13.4 C18.8,13.5 18.7,13.7 18.6,13.8 Z M15.7,17.4 C15.8,17.3 15.9,17.1 16,17 C15.9,17.1 15.8,17.3 15.7,17.4 Z M18.2,14.3 C18.1,14.4 18,14.6 17.9,14.7 C18,14.5 18.1,14.4 18.2,14.3 Z M17.5,15.1 C17.4,15.2 17.3,15.4 17.2,15.5 C17.2,15.4 17.3,15.3 17.5,15.1 Z M16.7,16 C16.6,16.1 16.5,16.3 16.4,16.4 C16.5,16.3 16.6,16.2 16.7,16 Z M32.2,19.5 C32.5,19.3 32.7,19.2 33,19 C32.7,19.1 32.4,19.3 32.2,19.5 Z M36.8,15.7 C37,15.5 37.2,15.3 37.3,15.1 C37.1,15.2 37,15.5 36.8,15.7 Z M39.5,10.2 C39.5,9.9 39.5,9.7 39.5,9.4 C39.6,9.6 39.6,9.9 39.5,10.2 Z M10.4,16.4 C10.2,16.6 9.7,16.9 9.3,17.2 C9.7,17 10.2,16.7 10.4,16.4 C10.4,16.4 10.5,16.3 10.5,16.3 C10.5,16.3 10.4,16.4 10.4,16.4 Z M39.1,12 C39,12.2 38.9,12.5 38.8,12.7 C38.9,12.4 39,12.2 39.1,12 Z M38.3,13.6 C38.2,13.8 38,14 37.9,14.3 C38.1,14 38.2,13.8 38.3,13.6 Z M38.4,13.5 C38.5,13.3 38.6,13.1 38.8,12.8 C38.7,13 38.5,13.2 38.4,13.5 Z M39.3,11.2 C39.2,11.4 39.2,11.7 39.1,11.9 C39.2,11.7 39.3,11.4 39.3,11.2 Z M39.5,10.3 C39.5,10.6 39.4,10.8 39.4,11 C39.4,10.8 39.5,10.6 39.5,10.3 Z M37.9,14.3 C37.8,14.5 37.6,14.7 37.4,14.9 C37.6,14.7 37.7,14.5 37.9,14.3 Z M15,31.4 C15,31.5 14.9,31.6 14.9,31.7 C14.9,31.6 14.9,31.6 14.9,31.5 C14.9,31.5 15,31.5 15,31.4 Z M36,7.2 C36,7.1 36,6.9 36,6.8 C35.9,6.9 36,7.1 36,7.2 Z M8.9,17.5 C9,17.4 9.2,17.3 9.3,17.3 C9.1,17.3 9,17.4 8.9,17.5 Z M8,17.9 C7.9,18 7.7,18 7.6,18 C7.7,18 7.9,17.9 8,17.9 Z M36.7,15.8 C36.5,16 36.3,16.2 36.1,16.4 C36.3,16.2 36.5,16 36.7,15.8 Z M24.1,14.8 C24.1,14.7 24.2,14.7 24.2,14.6 C24.2,14.7 24.1,14.8 24.1,14.8 C24.1,14.8 24.1,14.8 24.1,14.8 Z M33.5,11.8 C33.5,11.9 33.4,11.9 33.5,11.8 C33.4,11.9 33.5,11.9 33.5,11.8 Z M26.1,17.1 C26,17.1 26,17.1 26.1,17.1 C26.1,17.1 26.2,17.1 26.2,17 C26.1,17.1 26.1,17.1 26.1,17.1 Z M10.5,16.3 C10.6,16.2 10.7,16.1 10.8,16.2 C10.7,16.2 10.6,16.2 10.5,16.3 Z M31.7,4.3 C32.3,4.3 32.9,4.4 33.5,4.5 C32.9,4.3 32.3,4.3 31.7,4.3 Z M28.1,10 C28.1,10 28,10.1 28,10.1 C28,10.1 28.1,10 28.1,10 Z M12.1,36.2 C11,35.6 9.9,34.7 9.2,33.6 C9.9,34.7 11,35.6 12.1,36.2 Z M22.4,9.5 C22.5,9.4 22.7,9.2 22.8,9.1 C22.7,9.2 22.6,9.4 22.4,9.5 Z M16,17 C16.1,16.8 16.2,16.7 16.4,16.5 C16.3,16.6 16.1,16.8 16,17 Z M19.6,12.6 C19.7,12.5 19.9,12.3 20,12.2 C19.9,12.3 19.7,12.5 19.6,12.6 Z M23.4,8.6 C23.3,8.7 23.2,8.8 23.1,8.9 C23.2,8.8 23.3,8.7 23.4,8.6 Z M21,11.1 C21.1,10.9 21.3,10.8 21.4,10.7 C21.2,10.8 21.1,10.9 21,11.1 Z M21.6,10.4 C21.8,10.2 22,10 22.2,9.8 C22,9.9 21.8,10.1 21.6,10.4 Z M15.3,17.9 C15.4,17.7 15.5,17.6 15.7,17.4 C15.6,17.6 15.4,17.7 15.3,17.9 Z M19.3,13 C19.2,13.1 19,13.3 18.9,13.4 C19,13.3 19.2,13.1 19.3,13 Z M17.3,8.1 C16.7,8.4 16.1,8.7 15.6,9 C16.1,8.7 16.7,8.4 17.3,8.1 Z M20.7,11.4 C20.6,11.5 20.4,11.7 20.3,11.8 C20.4,11.7 20.6,11.5 20.7,11.4 Z M18.2,14.3 C18.3,14.1 18.5,14 18.6,13.8 C18.4,14 18.3,14.1 18.2,14.3 Z M16.7,16 C16.8,15.8 17,15.7 17.1,15.5 C17,15.7 16.9,15.9 16.7,16 Z M29.1,9.1 C29.1,9.1 29.1,9.1 29.1,9.1 C29.1,9.1 29.1,9.1 29.1,9.1 C29,9.2 28.8,9.3 28.6,9.5 C28.8,9.3 29,9.2 29.1,9.1 Z M27.5,10.6 C27.7,10.4 27.8,10.2 28,10.1 C27.8,10.3 27.7,10.5 27.5,10.6 Z M32.2,19.5 C32.1,19.5 32.1,19.6 32,19.6 C32.1,19.5 32.1,19.5 32.2,19.5 Z M25.2,23.8 C24.7,23.8 24.2,23.8 23.8,23.8 C24.1,23.8 24.3,23.8 24.6,23.8 C24.8,23.8 25,23.8 25.2,23.8 Z M35.4,17 C35.4,17 35.3,17.1 35.4,17 C35.3,17.1 35.4,17 35.4,17 Z M34.5,17.8 C34.5,17.8 34.6,17.7 34.6,17.7 C34.6,17.7 34.5,17.7 34.5,17.8 Z M36.1,16.4 C36,16.4 36,16.4 36.1,16.4 C36,16.4 36,16.4 36.1,16.4 Z M32.9,19 C32.9,18.9 33,18.9 32.9,19 C33,18.9 32.9,18.9 32.9,19 Z M14.6,18.8 C14.7,18.6 14.8,18.5 15,18.3 C14.9,18.5 14.7,18.7 14.6,18.8 Z M33.7,18.4 C33.7,18.4 33.8,18.3 33.8,18.3 C33.8,18.3 33.7,18.4 33.7,18.4 Z M15.5,29.9 C15.7,29.4 15.9,29 16.1,28.5 C15.8,29 15.6,29.4 15.5,29.9 Z M17.8,14.7 C17.7,14.9 17.5,15 17.4,15.2 C17.6,15 17.7,14.8 17.8,14.7 Z M30.3,14.5 C30.1,14.7 29.8,14.9 29.5,15 C29.8,14.9 30.1,14.7 30.3,14.5 Z M39.5,10.2 C39.5,10.2 39.5,10.3 39.5,10.3 C39.5,10.3 39.5,10.2 39.5,10.2 Z M38.6,5.6 C38.4,5.1 38.1,4.7 37.7,4.2 C38,4.6 38.3,5.1 38.6,5.6 Z M29.5,15.1 C29.3,15.3 29,15.4 28.8,15.6 C29,15.4 29.3,15.2 29.5,15.1 Z M30.5,14.4 C30.7,14.3 30.9,14.1 31.1,14 C30.9,14.1 30.7,14.2 30.5,14.4 Z M32.1,13.1 C32.3,12.9 32.5,12.8 32.6,12.6 C32.5,12.8 32.3,13 32.1,13.1 Z M31.3,13.8 C31.5,13.6 31.8,13.4 32,13.2 C31.7,13.4 31.5,13.6 31.3,13.8 Z M25.5,13 C25.3,13.3 25.1,13.5 24.9,13.8 C25.1,13.5 25.3,13.2 25.5,13 Z M24.7,14 C24.5,14.2 24.4,14.4 24.2,14.6 C24.4,14.5 24.5,14.2 24.7,14 Z M23.6,8.3 C23.7,8.2 23.8,8.1 23.9,8 C23.8,8.2 23.7,8.2 23.6,8.3 Z M26.2,17.1 C26.4,17 26.6,16.9 26.8,16.8 C26.6,16.9 26.4,17 26.2,17.1 Z M28.6,15.7 C28.4,15.8 28.2,16 27.9,16.1 C28.1,16 28.3,15.8 28.6,15.7 Z M38.6,5.6 C38.8,6.1 39,6.5 39.2,7 C39,6.5 38.8,6 38.6,5.6 Z M39.2,6.9 C39.4,7.6 39.5,8.2 39.6,8.8 C39.5,8.3 39.4,7.6 39.2,6.9 Z M27,16.6 C27.3,16.5 27.5,16.3 27.8,16.1 C27.5,16.3 27.2,16.5 27,16.6 Z M35.8,2.3 C36.3,2.7 36.8,3.1 37.2,3.5 C36.7,3.1 36.3,2.7 35.8,2.3 Z M15.6,9 C13.9,9.9 12.4,10.9 11.1,11.9 C12.4,10.9 13.9,9.9 15.6,9 Z M34.6,4.9 C34.5,4.8 34.3,4.8 34.2,4.7 C34.3,4.7 34.5,4.8 34.6,4.9 Z M11.1,11.9 C10.7,12.2 10.3,12.6 9.9,12.9 C10.2,12.6 10.6,12.3 11.1,11.9 Z M9.8,12.9 C9.4,13.2 9.1,13.6 8.7,13.9 C9.1,13.6 9.5,13.3 9.8,12.9 Z M25.7,5 C24.7,5.2 23.7,5.5 22.8,5.8 C23.8,5.5 24.7,5.2 25.7,5 Z M17.3,8.1 C19,7.2 20.9,6.4 22.8,5.8 C20.9,6.4 19,7.2 17.3,8.1 Z M33.5,11.8 C33.7,11.6 33.8,11.4 34,11.3 C33.8,11.5 33.6,11.7 33.5,11.8 Z M34,4.6 C33.8,4.5 33.7,4.5 33.5,4.5 C33.6,4.5 33.8,4.5 34,4.6 Z M7.5,15.3 C7.9,14.8 8.3,14.4 8.8,13.9 C8.3,14.4 7.8,14.9 7.5,15.3 Z M34.6,10.5 C34.7,10.3 34.9,10.1 35,9.9 C34.9,10.1 34.8,10.3 34.6,10.5 Z M34.5,10.6 C34.4,10.8 34.2,11 34.1,11.1 C34.3,11 34.4,10.8 34.5,10.6 Z M10.9,16.2 C10.9,16.2 10.8,16.2 10.9,16.2 C10.8,16.2 10.9,16.2 10.9,16.2 Z M35.5,9.1 C35.6,8.9 35.7,8.7 35.7,8.5 C35.6,8.7 35.6,8.9 35.5,9.1 Z M35.4,9.3 C35.3,9.5 35.2,9.6 35.1,9.8 C35.2,9.6 35.3,9.4 35.4,9.3 Z M7.5,15.3 C7.3,15.6 7,15.9 6.9,16.2 C7,15.9 7.2,15.6 7.5,15.3 Z M35.7,8.4 C35.8,8.2 35.8,8.1 35.8,7.9 C35.8,8.1 35.8,8.3 35.7,8.4 Z M31.7,4.3 C30.4,4.3 29.1,4.4 27.7,4.6 C29,4.4 30.4,4.3 31.7,4.3 Z M27.5,7 C27.6,7 27.6,7.1 27.7,7.1 C27.7,7 27.6,7 27.5,7 Z M27.1,6.8 C27.2,6.8 27.2,6.8 27.3,6.9 C27.3,6.9 27.2,6.9 27.1,6.8 Z M27,6.8 C26.9,6.8 26.8,6.8 26.8,6.8 C26.8,6.8 26.9,6.8 27,6.8 Z M26.2,6.7 C26.3,6.7 26.4,6.7 26.5,6.7 C26.4,6.7 26.3,6.7 26.2,6.7 Z M28.1,7.2 C28,7.2 28,7.1 27.9,7.1 C27.9,7.2 28,7.2 28.1,7.2 Z M28.2,7.3 C28.3,7.3 28.3,7.4 28.3,7.4 C28.3,7.4 28.2,7.4 28.2,7.3 Z M36.8,15.7 C36.8,15.7 36.7,15.8 36.7,15.8 C36.7,15.7 36.7,15.7 36.8,15.7 Z M25.1,7 C25,7 25,7.1 24.9,7.1 C25,7.1 25,7 25.1,7 C25.1,7 25.1,7 25.1,7 Z M24.1,7.9 C24.2,7.8 24.3,7.7 24.3,7.7 C24.3,7.7 24.2,7.8 24.1,7.9 Z M32.8,12.5 C33,12.3 33.2,12.1 33.4,11.9 C33.2,12.1 33,12.3 32.8,12.5 Z M24.5,7.5 C24.6,7.4 24.7,7.4 24.7,7.3 C24.7,7.3 24.6,7.4 24.5,7.5 Z M28.6,7.7 C28.6,7.7 28.5,7.6 28.5,7.6 C28.5,7.6 28.5,7.6 28.6,7.7 Z M36,7.2 C36,7.4 36,7.6 35.9,7.8 C35.9,7.6 36,7.4 36,7.2 Z M26,6.7 C26,6.7 25.9,6.7 25.9,6.7 C25.9,6.7 25.9,6.7 26,6.7 C25.9,6.7 26,6.7 26,6.7 Z M35.1,5.2 C35.3,5.4 35.5,5.6 35.6,5.8 C35.5,5.6 35.3,5.4 35.1,5.2 Z M28.1,10 C28.2,9.9 28.3,9.8 28.5,9.7 C28.4,9.7 28.3,9.8 28.1,10 Z M37.4,14.9 C37.4,15 37.3,15 37.4,14.9 C37.3,15 37.4,15 37.4,14.9 Z M26.1,12.2 C25.9,12.4 25.7,12.6 25.6,12.9 C25.8,12.7 25.9,12.4 26.1,12.2 Z M39.1,12 C39.1,11.9 39.1,11.9 39.1,12 C39.1,11.9 39.1,11.9 39.1,12 Z M38.8,12.8 C38.8,12.8 38.8,12.7 38.9,12.7 C38.8,12.7 38.8,12.7 38.8,12.8 Z M39.3,11.2 C39.3,11.2 39.3,11.1 39.3,11.1 C39.4,11.1 39.4,11.1 39.3,11.2 Z M26.3,12 C26.4,11.8 26.6,11.7 26.7,11.5 C26.6,11.7 26.4,11.8 26.3,12 Z M29.2,8.8 C29.2,8.8 29.2,8.9 29.2,8.8 C29.2,8.9 29.2,8.8 29.2,8.8 Z M27.5,10.7 C27.3,10.9 27.1,11.1 26.9,11.3 C27.1,11.1 27.3,10.9 27.5,10.7 Z M29,8.3 C29,8.3 29,8.2 28.9,8.2 C29,8.3 29,8.3 29,8.3 Z M28.9,8.1 C28.9,8.1 28.8,8 28.8,8 C28.9,8 28.9,8.1 28.9,8.1 Z M28.8,7.9 C28.8,7.9 28.7,7.8 28.7,7.8 C28.7,7.8 28.7,7.8 28.8,7.9 Z M29.2,8.6 C29.2,8.6 29.2,8.7 29.2,8.7 C29.2,8.7 29.2,8.7 29.2,8.6 Z M29.1,8.4 C29.1,8.4 29.1,8.5 29.1,8.5 C29.1,8.5 29.1,8.5 29.1,8.4 Z M38.3,13.6 C38.3,13.6 38.4,13.5 38.4,13.5 C38.4,13.5 38.4,13.5 38.3,13.6 Z M39.6,9.4 C39.6,9.7 39.6,9.9 39.5,10.2 C39.5,10.3 39.5,10.3 39.5,10.3 C39.5,10.5 39.4,10.8 39.4,11 C39.4,11 39.4,11.1 39.4,11.1 C39.3,11.3 39.3,11.6 39.2,11.8 C39.2,11.8 39.2,11.8 39.2,11.8 C39.1,12 39,12.3 38.9,12.5 C38.9,12.5 38.9,12.6 38.8,12.6 C38.7,12.8 38.6,13.1 38.4,13.3 C38.4,13.3 38.3,13.4 38.3,13.4 C38.2,13.6 38,13.8 37.9,14.1 C37.9,14.1 37.9,14.1 37.9,14.2 C37.8,14.4 37.6,14.6 37.4,14.8 C37.4,14.8 37.3,14.9 37.3,14.9 C37.1,15.1 36.9,15.3 36.8,15.5 C36.8,15.5 36.7,15.6 36.7,15.6 C36.5,15.8 36.3,16 36.1,16.2 C36.1,16.2 36,16.3 36,16.3 C35.8,16.5 35.6,16.7 35.4,16.9 C35.4,16.9 35.3,17 35.3,17 C35.1,17.2 34.9,17.4 34.6,17.6 C34.6,17.6 34.5,17.7 34.5,17.7 C34.3,17.9 34,18.1 33.8,18.2 C33.8,18.2 33.7,18.3 33.7,18.3 C33.5,18.5 33.2,18.6 33,18.8 C33,18.8 32.9,18.8 32.9,18.9 C32.7,19.1 32.4,19.2 32.1,19.4 C32,19.4 32,19.5 32,19.5 C31.8,19.7 31.5,19.8 31.2,20 C31.2,20 31.1,20.1 31.1,20.1 C30.9,20.3 30.6,20.4 30.4,20.6 C29.5,21.1 28.6,21.7 27.7,22.1 C27.7,22.1 27.8,22.1 27.8,22.1 C27.8,22.1 27.8,22.1 27.9,22.1 C27.9,22.1 28,22.1 28,22.1 C28.5,22.2 29.7,22.5 30.8,23.5 C33.4,25.9 34,28.5 34.3,31.1 C34.6,34 34.3,36.9 33.1,39.5 C31.8,42.6 29.5,45.3 26.9,47.4 C24.1,49.6 20.9,51.2 17.5,52.2 C14.4,53.1 11,53.6 7.8,53.1 C4.9,52.7 1.5,50.9 1.5,47.5 C1.5,44.6 4.3,42.7 6.7,41.5 C7,41.3 7.3,41.2 7.6,41.1 C10.7,39.7 14.6,38.4 17.9,37.4 C19.6,36.9 23.2,35.7 25.1,35.4 C25.3,35.4 26,35.3 26.4,35.4 C26.6,35.4 26.7,35.5 26.6,35.7 C26.3,35.9 26,36 25.6,36.2 C23.5,37.2 20.9,38.2 19,39 C16.6,40 14.2,41.1 11.9,42.3 C11.7,42.4 11.4,42.5 11.2,42.7 C10,43.3 8.5,44 7.8,45.1 C6.2,47.4 10.3,48 11.6,48 C20,47.5 25.1,42.8 27.2,40.4 C29.6,37.5 32,32.9 30.9,28.7 C30.6,27.4 30,26.2 29,25.1 C28.1,24.1 26.8,23.9 25.4,23.9 C25.2,23.9 25,23.9 24.8,23.9 C24.6,23.9 24.3,23.9 24,23.9 C23.8,23.9 23.5,23.9 23.2,24 C23.2,24 23.2,24 23.2,24 C22.6,24.1 22,24.3 21.2,24.5 C21,24.6 20.8,24.6 20.5,24.7 C20.3,24.8 20.1,24.8 19.8,24.9 C19.4,24.9 19.2,25 19,25 C18.6,25.1 18.3,25.1 18,25.1 C17.9,25.1 17.7,25.1 17.6,25.1 C17.6,25.1 17.6,25.2 17.6,25.2 C17.6,25.2 17.6,25.2 17.6,25.2 C17.4,25.7 17.2,26.1 16.9,26.5 C16.8,26.6 16.8,26.8 16.7,26.9 C16.5,27.3 16.4,27.6 16.2,28 C16.1,28.1 16.1,28.3 16,28.4 C15.8,28.9 15.6,29.3 15.4,29.8 C15.4,29.8 15.4,29.9 15.4,29.9 C15.2,30.4 15.1,30.9 14.9,31.3 C14.9,31.4 14.9,31.4 14.8,31.4 C14.8,31.5 14.8,31.5 14.8,31.6 C14.7,31.8 14.7,32 14.6,32.2 C14.6,32.3 14.6,32.4 14.5,32.4 C14.5,32.6 14.4,32.7 14.4,32.9 C14.4,33 14.4,33 14.4,33.1 C14.3,33.8 14.2,34.5 14.4,35.1 C14.5,35.6 14.2,36 13.8,36.2 C13.3,36.4 12.6,36.4 12.1,36.1 C12.1,36.1 12.1,36.1 12.1,36.1 C11,35.5 9.9,34.6 9.2,33.5 C9,33.2 8.9,33 8.8,32.7 C8.7,32.4 8.6,32 8.5,31.7 C8.5,31.7 8.5,31.7 8.5,31.7 C8.5,31.6 8.5,31.4 8.5,31.3 C8.5,31.1 8.5,30.9 8.5,30.6 C8.5,30.5 8.5,30.4 8.5,30.4 C8.5,30.2 8.5,30.1 8.6,29.9 C8.6,29.8 8.6,29.7 8.7,29.6 C8.7,29.5 8.8,29.3 8.8,29.2 C8.8,29.1 8.9,29 8.9,28.9 C8.9,28.7 9,28.6 9,28.4 C9,28.3 9.1,28.2 9.1,28 C9.2,27.9 9.2,27.7 9.3,27.5 C9.4,27.4 9.4,27.2 9.5,27.1 C9.6,26.9 9.6,26.8 9.7,26.6 C9.8,26.5 9.8,26.3 9.9,26.2 L10.1,25.7 C10.2,25.6 10.2,25.4 10.3,25.3 C10.4,25.1 10.5,25 10.6,24.8 C10.7,24.7 10.8,24.5 10.8,24.4 C10.9,24.2 11,24.1 11.1,23.9 C11.2,23.8 11.3,23.6 11.4,23.5 C11.5,23.3 11.6,23.2 11.7,23 C11.8,22.9 11.9,22.7 12,22.6 C12.1,22.4 12.2,22.3 12.3,22.1 C12.4,22 12.5,21.8 12.6,21.7 C12.7,21.5 12.8,21.4 12.9,21.2 C13,21 13.1,20.9 13.2,20.7 C13.3,20.5 13.4,20.4 13.5,20.2 C13.6,20 13.7,19.9 13.8,19.7 C13.9,19.5 14,19.4 14.2,19.2 C14.3,19 14.4,18.9 14.5,18.7 C14.6,18.5 14.7,18.4 14.9,18.2 C15,18 15.1,17.9 15.2,17.7 C15.3,17.5 15.4,17.4 15.6,17.2 C15.7,17.1 15.8,16.9 15.9,16.8 C16,16.6 16.1,16.5 16.3,16.3 C16.4,16.2 16.5,16 16.6,15.9 C16.7,15.7 16.8,15.6 17,15.4 C17.1,15.3 17.2,15.1 17.3,15 C17.4,14.8 17.5,14.7 17.7,14.5 C17.8,14.4 17.9,14.2 18,14.1 C18.1,13.9 18.2,13.8 18.4,13.7 C18.5,13.6 18.6,13.4 18.7,13.3 C18.8,13.2 18.9,13 19.1,12.9 C19.2,12.8 19.3,12.7 19.4,12.5 C19.5,12.4 19.7,12.2 19.8,12.1 C19.9,12 20,11.9 20.1,11.8 C20.2,11.7 20.4,11.5 20.5,11.4 C20.6,11.3 20.7,11.2 20.8,11.1 C20.9,10.9 21.1,10.8 21.2,10.7 C21.3,10.6 21.4,10.5 21.4,10.4 C21.6,10.2 21.8,10 22,9.8 C22.1,9.7 22.1,9.7 22.2,9.6 C22.3,9.5 22.5,9.3 22.6,9.2 C22.7,9.1 22.8,9 22.8,9 C22.9,8.9 23,8.8 23.1,8.7 C23.2,8.6 23.3,8.6 23.3,8.5 C23.4,8.4 23.5,8.3 23.6,8.2 C23.7,8.1 23.7,8.1 23.8,8 C23.9,7.9 24,7.8 24,7.8 C24.1,7.7 24.1,7.7 24.2,7.6 C24.3,7.5 24.4,7.5 24.4,7.4 C24.5,7.3 24.5,7.3 24.6,7.3 C24.7,7.3 24.7,7.2 24.8,7.2 C25,7 25.3,6.9 25.5,6.9 C25.5,6.9 25.6,6.9 25.6,6.9 C25.7,6.9 25.8,6.9 25.8,6.9 C25.9,6.9 26,6.9 26.1,6.9 C26.2,6.9 26.2,6.9 26.3,6.9 C26.4,6.9 26.5,6.9 26.5,6.9 C26.6,6.9 26.6,6.9 26.7,7 C26.8,7 26.8,7 26.9,7.1 C27,7.1 27,7.1 27.1,7.2 C27.2,7.2 27.2,7.3 27.3,7.3 C27.4,7.3 27.4,7.4 27.5,7.4 C27.6,7.4 27.6,7.5 27.7,7.5 C27.8,7.5 27.8,7.6 27.8,7.6 C27.9,7.6 27.9,7.7 27.9,7.7 C27.9,7.7 28,7.8 28,7.8 C28,7.8 28.1,7.9 28.1,7.9 C28.1,7.9 28.2,8 28.2,8 C28.2,8 28.3,8.1 28.3,8.1 C28.3,8.1 28.4,8.2 28.4,8.2 C28.4,8.2 28.5,8.3 28.5,8.3 C28.5,8.3 28.5,8.4 28.6,8.4 C28.6,8.4 28.6,8.5 28.7,8.5 C28.7,8.5 28.7,8.6 28.7,8.6 C28.7,8.6 28.7,8.7 28.7,8.7 C28.7,8.7 28.7,8.8 28.7,8.8 C28.7,8.8 28.7,8.9 28.7,8.9 C28.7,8.9 28.7,9 28.7,9 C28.7,9 28.7,9.1 28.7,9.1 L28.7,9.2 C28.7,9.2 28.7,9.3 28.7,9.3 C28.7,9.3 28.7,9.3 28.7,9.3 C28.7,9.3 28.7,9.4 28.6,9.4 C28.5,9.5 28.3,9.6 28.2,9.8 C28.2,9.8 28.1,9.9 28.1,9.9 C28,10 27.9,10.1 27.7,10.3 C27.6,10.3 27.6,10.4 27.5,10.4 C27.3,10.6 27.2,10.7 27,10.9 C26.8,11.1 26.6,11.3 26.4,11.5 C26.3,11.6 26.3,11.6 26.2,11.7 C26.1,11.9 25.9,12 25.8,12.2 C25.7,12.3 25.7,12.3 25.6,12.4 C25.4,12.6 25.2,12.8 25.1,13.1 C25.1,13.1 25,13.2 25,13.2 C24.8,13.5 24.6,13.7 24.4,14 C24.3,14.1 24.3,14.2 24.2,14.2 C24,14.4 23.9,14.6 23.7,14.8 C23.7,14.9 23.6,14.9 23.6,14.9 C23.6,14.9 23.6,14.9 23.6,14.9 C22.6,16.2 21.6,17.7 20.6,19.2 C21.9,18.9 23.7,18.2 25.6,17.2 C25.6,17.2 25.6,17.2 25.6,17.2 C25.6,17.2 25.7,17.2 25.7,17.1 C25.9,17 26.1,16.9 26.3,16.8 C26.4,16.8 26.4,16.7 26.5,16.7 C26.8,16.6 27,16.4 27.3,16.2 C27.4,16.2 27.4,16.1 27.4,16.1 C27.6,16 27.8,15.8 28.1,15.7 C28.2,15.7 28.2,15.6 28.3,15.6 C28.5,15.4 28.8,15.3 29,15.1 C29,15.1 29,15.1 29,15.1 C29.3,14.9 29.5,14.7 29.8,14.6 C29.9,14.5 29.9,14.5 30,14.5 C30.2,14.4 30.4,14.2 30.6,14.1 C30.7,14.1 30.7,14 30.7,14 C30.9,13.8 31.2,13.6 31.4,13.4 C31.5,13.4 31.5,13.3 31.6,13.3 C31.8,13.1 32,13 32.1,12.8 C32.2,12.7 32.2,12.7 32.3,12.6 C32.5,12.4 32.7,12.2 32.9,12 C32.9,12 32.9,12 33,11.9 C33.2,11.7 33.3,11.5 33.5,11.4 C33.6,11.3 33.6,11.3 33.6,11.2 C33.7,11 33.9,10.8 34,10.7 C34,10.7 34,10.6 34.1,10.6 C34.2,10.4 34.4,10.2 34.5,10 C34.5,9.9 34.6,9.9 34.6,9.8 C34.7,9.6 34.8,9.5 34.9,9.3 C34.9,9.3 35,9.2 35,9.2 C35.1,9 35.2,8.8 35.2,8.6 C35.2,8.6 35.2,8.5 35.2,8.5 C35.3,8.3 35.3,8.2 35.3,8 C35.3,7.9 35.3,7.9 35.3,7.8 C35.3,7.6 35.4,7.4 35.4,7.2 C35.4,7.1 35.4,6.9 35.4,6.8 C35.4,6.6 35.3,6.3 35.2,6.1 C35.2,6 35.1,5.9 35.1,5.8 C35,5.6 34.8,5.4 34.6,5.2 C34.5,5.1 34.3,5 34.1,4.9 C34,4.8 33.8,4.8 33.7,4.7 C33.6,4.7 33.6,4.7 33.5,4.6 C33.3,4.5 33.1,4.5 33,4.5 C32.5,4.4 31.9,4.3 31.2,4.3 C29.9,4.3 28.6,4.4 27.2,4.6 C26.5,4.7 25.9,4.8 25.2,5 C24.2,5.2 23.2,5.5 22.3,5.8 C20.4,6.4 18.5,7.2 16.8,8.1 C16.2,8.4 15.6,8.7 15.1,9 C13.4,9.9 11.9,10.9 10.6,11.9 C10.2,12.2 9.8,12.6 9.4,12.9 C9,13.2 8.7,13.6 8.3,13.9 C7.8,14.4 7.4,14.9 7,15.3 C6.8,15.6 6.5,15.9 6.4,16.2 C5.3,18.1 6,18.3 7.2,18 C7.3,18 7.5,17.9 7.6,17.9 C7.9,17.8 8.2,17.7 8.5,17.5 C8.6,17.4 8.8,17.3 8.9,17.3 C9.4,17 9.8,16.7 10,16.5 C10,16.5 10.1,16.4 10.1,16.4 C10.2,16.3 10.3,16.3 10.4,16.3 C10.4,16.3 10.5,16.3 10.5,16.3 C10.6,16.4 10.6,16.5 10.6,16.8 C10.6,17.6 10.2,18.7 9.5,19.6 C9.4,19.7 9.3,19.9 9.2,20 C9,20.2 8.7,20.5 8.5,20.7 C8,21.1 7.4,21.4 6.7,21.5 C6.4,21.6 6,21.6 5.7,21.5 C4.8,21.4 3.8,20.7 3.1,19.8 C1.8,18.2 0.9,15.9 0.9,14.8 C0.9,7.4 18.8,-0.7 30.3,0.6 C31.2,0.7 32,0.9 32.7,1.1 C33.4,1.3 34.1,1.6 34.7,2 C35,2.2 35.3,2.3 35.5,2.5 C36,2.9 36.5,3.3 36.9,3.7 C37.1,3.9 37.3,4.1 37.5,4.4 C37.8,4.8 38.1,5.3 38.4,5.8 C38.6,6.3 38.8,6.7 39,7.2 C39.2,7.9 39.3,8.5 39.4,9.1 C39.6,9 39.6,9.2 39.6,9.4 Z M15.5,29.9 C15.7,29.4 15.9,29 16.1,28.5 C15.8,29 15.6,29.4 15.5,29.9 Z M74.5,39.8 C74.7,40.2 74.5,40.2 74.2,40.2 C70.8,40.1 67.5,40.3 64.1,40.7 C60.7,41 57.4,41.6 54.1,42.3 C50.8,43 47.5,43.9 44.3,44.9 C42.7,45.4 41.1,46 39.6,46.6 C38.9,46.9 38.2,47.2 37.5,47.4 C37.2,47.5 37,47.6 36.7,47.7 C36.7,47.7 36.6,47.7 36.6,47.7 C36.6,47.7 36.5,47.7 36.5,47.7 C36.4,47.8 36.3,47.8 36.2,47.9 C36.2,47.9 36.1,47.9 36.1,48 C36.1,48 36,48 36,48.1 C36,48.1 36,48.1 36,48.1 C36,48.1 35.9,48.1 35.9,48.2 C35.9,48.2 35.8,48.2 35.8,48.3 C35.5,48.5 35.2,48.7 34.9,49 C34.7,49.2 34.4,49.2 34.2,49.1 C33.9,49 33.7,48.7 33.6,48.3 C33.6,48.1 33.5,47.9 33.5,47.7 C33.5,47.2 33.5,46.7 33.6,46.2 C33.7,46 33.7,45.9 33.8,45.7 C33.9,45.5 34,45.4 34.2,45.2 C34.3,45.1 34.3,45.1 34.4,45 C34.5,44.9 34.6,44.8 34.7,44.8 C35.1,44.6 35.5,44.4 35.9,44.3 C36.7,44 37.5,43.6 38.4,43.4 C40.1,42.8 41.7,42.3 43.4,41.8 L45.9,41.1 L48.4,40.5 L51,40 L53.6,39.5 C57,38.9 60.5,38.5 64,38.4 C65.9,38.3 67.9,38.4 69.8,38.6 C70.5,38.7 71.2,38.8 71.9,39 C72.5,39.1 73.2,39.2 73.8,39.5 C74,39.6 74.3,39.7 74.5,39.9 C74.4,39.7 74.4,39.8 74.5,39.8 Z" id="Shape"></path>
                        </g>
                    </g>
                </g>
            </g>
        </g>
    </g>
</svg>