<?xml version="1.0" encoding="UTF-8" standalone="no"?>
<svg width="40px" height="40px" viewBox="0 0 40 40" version="1.1" xmlns="http://www.w3.org/2000/svg" xmlns:xlink="http://www.w3.org/1999/xlink">
    <!-- Generator: Sketch 50.2 (55047) - http://www.bohemiancoding.com/sketch -->
    <title>Odnok</title>
    <desc>Created with Sketch.</desc>
    <defs></defs>
    <g id="Symbols" stroke="none" stroke-width="1" fill="none" fill-rule="evenodd">
        <g id="footer-3" transform="translate(-1283.000000, -89.000000)">
            <g id="Group-12">
                <g id="Footer-2+">
                    <g id="Group-4-Copy" transform="translate(1228.000000, 89.000000)">
                        <g id="Odnok" transform="translate(55.000000, 0.000000)">
                            <circle id="Oval-2-Copy" fill="#3C3C3C" cx="20" cy="20" r="20"></circle>
                            <g id="odnoklassniki-logo" transform="translate(3.000000, 2.000000)">
                                <path d="M23.6327343,19.4661917 C22.9112577,20.2341177 22.0427438,20.7898957 21.0782615,21.17759 C20.1665618,21.5439628 19.1674624,21.728393 18.1783025,21.8513465 C18.3280818,22.0197856 18.3983443,22.1025837 18.4915708,22.1992408 C19.8337572,23.5982804 21.1824557,24.990213 22.5201865,26.3931616 C22.9760363,26.8714718 23.0709765,27.4642069 22.8200877,28.0196296 C22.546235,28.6272897 21.9316946,29.0267107 21.3288075,28.9837126 C20.9469905,28.9563501 20.6491457,28.7598378 20.3848899,28.4837256 C19.371738,27.4268945 18.3393923,26.3888973 17.3474905,25.3121662 C17.0578716,24.9987415 16.919403,25.0584415 16.6640585,25.3306448 C15.6450799,26.4187473 14.6093068,27.4894373 13.5677071,28.5544416 C13.0998612,29.0327518 12.5432446,29.1194589 12.0003377,28.8458341 C11.4234992,28.5565737 11.0567628,27.9457154 11.0848679,27.3313035 C11.104747,26.9169575 11.3014822,26.5992685 11.5763631,26.3156938 C12.9051825,24.9408184 14.229889,23.5616787 15.5549382,22.1836051 C15.6430234,22.0922784 15.7245966,21.995266 15.8524402,21.8531232 C14.0451498,21.6573217 12.415401,21.1960685 11.0200892,20.0649679 C10.8466606,19.9242466 10.6680909,19.7885003 10.5104285,19.6307219 C9.89931557,19.0227064 9.83796435,18.3258518 10.320891,17.6087418 C10.7345833,16.9946852 11.4282976,16.8305104 12.1497742,17.1833797 C12.2896139,17.2512528 12.4225986,17.3372492 12.5500995,17.4282205 C15.1501572,19.2806955 18.7222376,19.3315115 21.3325777,17.5110186 C21.5910069,17.3063331 21.8676015,17.137894 22.1880673,17.0529637 C22.8104909,16.8866568 23.3917851,17.1243905 23.725618,17.6894078 C24.1077778,18.335091 24.1033221,18.9647833 23.6327343,19.4661917 Z" id="Shape" fill="#FFFFFF" fill-rule="nonzero"></path>
                                <path d="M17.0279315,5.00002295 C20.3503551,5.00908477 23.0170189,7.72310013 22.9999182,11.0777165 C22.9831665,14.3549589 20.2728785,17.011118 16.9560387,16.999965 C13.6730514,16.988812 10.9805621,14.2706143 11.0001057,10.9867498 C11.0186024,7.66698654 13.7124877,4.99096113 17.0279315,5.00002295 Z" id="Path" fill="#FFFFFF"></path>
                                <path d="M17.0194495,13.9999792 C18.6819489,13.9939255 20.0060351,12.6588958 19.9999793,10.9934026 C19.9939235,9.3271972 18.6669875,8.00142617 17.0037757,8.00000176 C15.3266711,7.99822124 13.9872672,9.34856337 14.0000913,11.0297251 C14.0125592,12.6891645 15.3516068,14.006033 17.0194495,13.9999792 Z" id="Shape" fill="#3C3C3C" fill-rule="nonzero"></path>
                            </g>
                        </g>
                    </g>
                </g>
            </g>
        </g>
    </g>
</svg>