<?xml version="1.0" encoding="UTF-8" standalone="no"?>
<svg width="32px" height="30px" viewBox="0 0 32 30" version="1.1" xmlns="http://www.w3.org/2000/svg" xmlns:xlink="http://www.w3.org/1999/xlink">
    <!-- Generator: Sketch 50.2 (55047) - http://www.bohemiancoding.com/sketch -->
    <title>shopping-basket</title>
    <desc>Created with Sketch.</desc>
    <defs></defs>
    <g id="Symbols" stroke="none" stroke-width="1" fill="none" fill-rule="evenodd">
        <g id="Header-!!!" transform="translate(-1291.000000, -105.000000)" fill="#4EB600" fill-rule="nonzero">
            <g id="Header">
                <g id="Shoping-card" transform="translate(1291.879861, 99.000000)">
                    <g id="shopping-basket" transform="translate(0.000000, 6.000000)">
                        <path d="M29.4506786,10.1154217 L17.7072882,10.1154217 L17.7072882,1.20650602 C17.7072882,0.562771084 17.1832498,0.0391566265 16.5391281,0.0391566265 L14.3257246,0.0391566265 C13.6815427,0.0391566265 13.1575646,0.562831325 13.1575646,1.20650602 L13.1575646,10.1154217 L1.41411387,10.1154217 C0.634416165,10.1154217 0,10.7493373 0,11.5286145 L0,14.575 C0,15.3542771 0.634416165,15.9881325 1.41411387,15.9881325 L1.61756831,15.9881325 L3.21126464,27.3068072 C3.42430405,28.8198795 4.73804706,29.9608434 6.26705995,29.9608434 L24.597612,29.9608434 C26.1266852,29.9608434 27.4403679,28.8198193 27.6534073,27.3068072 L29.2471639,15.9880723 L29.4506183,15.9880723 C30.2304366,15.9880723 30.8647322,15.3541566 30.8647322,14.5749398 L30.8647322,11.5285542 C30.8647925,10.7493373 30.2304969,10.1154217 29.4506786,10.1154217 Z M14.3871528,1.26795181 L16.4775794,1.26795181 L16.4775794,13.0031928 L14.3871528,13.0031928 L14.3871528,1.26795181 Z M26.4358153,27.1356024 C26.3077144,28.0457229 25.5174069,28.7321084 24.5976723,28.7321084 L6.26705995,28.7321084 C5.3473253,28.7321084 4.5570781,28.0457831 4.42891688,27.1356024 L2.85933367,15.9880723 L28.0053986,15.9880723 L26.4358153,27.1356024 Z M29.635144,14.5749398 C29.635144,14.6765663 29.5523757,14.7592771 29.4506786,14.7592771 L1.41411387,14.7592771 C1.31241679,14.7592771 1.22964851,14.6765663 1.22964851,14.5749398 L1.22964851,11.5285542 C1.22964851,11.4269277 1.31241679,11.3442169 1.41411387,11.3442169 L13.1575043,11.3442169 L13.1575043,13.0645783 C13.1575043,13.7083133 13.6815427,14.2319277 14.3256644,14.2319277 L16.5390679,14.2319277 C17.1832498,14.2319277 17.7072279,13.708253 17.7072279,13.0645783 L17.7072279,11.3442169 L29.4506183,11.3442169 C29.5523154,11.3442169 29.6350837,11.4269277 29.6350837,11.5285542 L29.6350837,14.5749398 L29.635144,14.5749398 Z" id="Shape"></path>
                    </g>
                </g>
            </g>
        </g>
    </g>
</svg>