<?xml version="1.0" encoding="UTF-8" standalone="no"?>
<svg width="40px" height="40px" viewBox="0 0 40 40" version="1.1" xmlns="http://www.w3.org/2000/svg" xmlns:xlink="http://www.w3.org/1999/xlink">
    <!-- Generator: Sketch 50.2 (55047) - http://www.bohemiancoding.com/sketch -->
    <title>vk</title>
    <desc>Created with Sketch.</desc>
    <defs></defs>
    <g id="Symbols" stroke="none" stroke-width="1" fill="none" fill-rule="evenodd">
        <g id="footer-3" transform="translate(-1228.000000, -89.000000)">
            <g id="Group-12">
                <g id="Footer-2+">
                    <g id="Group-4-Copy" transform="translate(1228.000000, 89.000000)">
                        <g id="vk">
                            <circle id="XMLID_11_" fill="#3C3C3C" fill-rule="nonzero" cx="20" cy="20" r="20"></circle>
                            <path d="M20.6277924,27.0662047 C20.6277924,27.0662047 21.0430728,27.0206175 21.2550844,26.7920572 C21.450235,26.5822313 21.4439901,26.1881833 21.4439901,26.1881833 C21.4439901,26.1881833 21.4171374,24.3434641 22.273302,24.0718145 C23.1172891,23.804224 24.2010773,25.85471 25.3498115,26.6431183 C26.2184657,27.2398106 26.878543,27.1089817 26.878543,27.1089817 L29.9500567,27.0662047 C29.9500567,27.0662047 31.5568483,26.9672243 30.7949805,25.7038976 C30.7325323,25.6005459 30.3512862,24.7693606 28.5112506,23.0614029 C26.5853488,21.2738238 26.8432597,21.5629589 29.1632096,18.4708373 C30.5760997,16.5877124 31.1409434,15.4380414 30.9645273,14.9456375 C30.7962295,14.4766517 29.7570918,14.6006113 29.7570918,14.6006113 L26.2987116,14.622156 C26.2987116,14.622156 26.0423618,14.587185 25.8522071,14.7008407 C25.6664238,14.8123107 25.5468355,15.0720951 25.5468355,15.0720951 C25.5468355,15.0720951 24.9994772,16.5293234 24.269458,17.7686075 C22.7294859,20.383625 22.1137469,20.5216355 21.8620807,20.3592702 C21.276629,19.9808342 21.4227578,18.8389693 21.4227578,18.0277674 C21.4227578,15.4936203 21.8071263,14.4369971 20.6743163,14.1634741 C20.2983783,14.072612 20.0217329,14.0126617 19.0603431,14.0029823 C17.8263671,13.9901804 16.7819213,14.0067292 16.190537,14.2964887 C15.7971135,14.4891413 15.4936154,14.9184726 15.678462,14.9431396 C15.9070223,14.9737392 16.4247177,15.0827113 16.6991775,15.4564636 C17.0535709,15.9385636 17.0410813,17.021415 17.0410813,17.021415 C17.0410813,17.021415 17.2446623,20.0045646 16.5655384,20.3751945 C16.0993627,20.6293586 15.4598933,20.1104142 14.0869701,17.7380079 C13.3834914,16.5227663 12.8523696,15.179506 12.8523696,15.179506 C12.8523696,15.179506 12.7499546,14.9284643 12.5672937,14.7942007 C12.3456026,14.6315232 12.0358597,14.5796912 12.0358597,14.5796912 L8.74952423,14.6012358 C8.74952423,14.6012358 8.25618361,14.6149744 8.07508389,14.8294839 C7.91396759,15.0202631 8.06228202,15.4149356 8.06228202,15.4149356 C8.06228202,15.4149356 10.635147,21.4343156 13.5483546,24.4677359 C16.2195755,27.2488656 19.2529958,27.0662047 19.2529958,27.0662047 L20.6277924,27.0662047 Z" id="Shape" fill="#FFFFFF"></path>
                        </g>
                    </g>
                </g>
            </g>
        </g>
    </g>
</svg>