<?xml version="1.0" encoding="utf-8"?><svg xmlns="http://www.w3.org/2000/svg" xmlns:xlink="http://www.w3.org/1999/xlink"><symbol viewBox="0 0 103 54" id="Blaze" xmlns="http://www.w3.org/2000/svg"><path d="M79.6 30.8c5.6-4.2 8.3-7.8 8-8.5-.3-1.9-1.4-4.4-3.3-4.8-.9.2-4.7 1.8-6.4 2 .5-.5-1.2-3-2-2.9-.5 0-2.6 1.2-2.9 3.1-.2.8.7 2 1.1 2.4-.5.6-.9 1.2-1.4 1.8-1.6 2-3.4 3.8-5.3 5.5-.5.4-1 .9-1.6 1.2-.1.1-.6.5-.8.3-.8-.4 4-7.7 5.2-9.4.4-.6-1.2-1.9-3.2-2.3-.4-1-2.2-2.2-3.5-2.2-4.1 0-8.3 3.7-10.8 7.6-.4.6-.8 1.2-1.3 1.7l-.6.6c-2.5 2.9-7.5 7.5-9.3 6.3-1.8-1.2-1.3-3.2.2-6.3 4.8-2.5 15.9-13.4 16.6-18.3.2-1.2-2.5-4-4.7-3.7-4.3.6-18.6 19.4-18 25.9.3 3.2 4.5 6.3 6.3 6.3 2.4-.1 6.1-3.9 8.7-6.9v.6c.2 2.2 3.4 5 5 4.7 1.5-.2 3.4-3.5 4.1-4.3.2 2 2.1 4.2 3.9 4.4.5 0 1-.2 1.4-.4.6-.4 1.2-.8 1.7-1.3 1.3-1.2 2.4-2.5 3.5-3.8 1.8-2.2 3.4-4.5 5.3-6.5.1-.1.2-.3.3-.4 0 0 .2-.3.3-.3 2.8.2 5.2-1.3 6.7-1.6-3.3 4-6.6 7.5-8.8 8.9-2.8.3-2.9 1.4-3.1 2.2-.3 2.1.3 3.5.8 3.2.8-.4 2.2-1.2 2.9-1.6 3.9.3 8.6 1 9.7 2.3 1.5 1.5 1.4-.8-.5-3.8-.6-1.2-2.3-1.5-4.2-1.7zM54.9 8.5c2.3.1-7.6 12.8-12.3 16.6 2.6-5.5 11.1-16.7 12.3-16.6zm1.4 22.2c-2.1 0 4.8-11.2 9.6-10.1-.2.2-8.2 10.1-9.6 10.1zm44.7 1.4c-1.5 1.6-2.7 2.8-5 3.3-1.4.3-2.5.3-3.9-.1-1.1-.4-2-1-2.9-1.8-1.2-1.1-2.4-2.6-2.4-4.3 0-5.5 5.7-12 9.4-12.4 2.3-.3 5.9 2.7 5.8 5-.2 2-2.9 7.1-6.7 7.3-1.2.2-3-1.1-3.3-1.8-.5 1.5-.7 3.2.7 4.2 3.1 2.1 5.5.5 8.2-1.3 2.6-1.6 1.3.6.1 1.9zm-8.4-6c2.8 1.2 7-6.1 5.7-6.1-1.6.2-5.2 4.8-5.7 6.1zM29 8.3c.1.1.1.1 0 0 .1.1.1.1 0 0zm.2.4s0 .1 0 0c0 .1 0 0 0 0zm0-.1c-.1 0-.1 0 0 0-.1 0-.1 0 0 0zm-1.7 2.1s0-.1 0 0c0-.1 0 0 0 0zm-.8.8l.2-.2-.2.2zm2.2-3.4s.1.1 0 0c.1.1 0 0 0 0zM26.3 12l-.2.2.2-.2zm2.4-2.5l-.1.1s0-.1.1-.1zM27.5 7c-.1 0-.1 0-.2-.1.1 0 .2.1.2.1zm-.8-.2h-.2c.1-.1.1-.1.2 0zM34 4.6c.1 0 .1 0 .2.1-.1 0-.1-.1-.2-.1zm-8 2.1h.2-.2zm2.2.6l-.1-.1c0 .1 0 .1.1.1zm.4.4l.1.1-.1-.1zm-.3-.3l.1.1-.1-.1zm.5.6l-.1-.1c.1 0 .1.1.1.1zm-1.1-.9c.1 0 .1.1.2.1-.1-.1-.1-.1-.2-.1zm8.1-1c.1.2.1.4.2.7-.1-.2-.2-.5-.2-.7zM35 9.9c0-.1.1-.1.1-.2 0 .1-.1.2-.1.2zm-.4.6c0 .1 0 .1 0 0 0 .1 0 .1 0 0zm-2 2.1l.2-.2c-.1.1-.1.2-.2.2zm2.9-3.5l-.1.1.1-.1zm-1.4 2c0 .1-.1.1-.1.2 0-.1.1-.1.1-.2zm-8.3-4.4c-.3 0-.5.1-.7.3.1-.1.3-.2.4-.3h.3zm9.9 1.7zm-1.1-3.5c.2.1.3.2.5.3-.1-.1-.3-.2-.5-.3zm1.3 2.9zm-5.6 6.7c.1 0 .1-.1.2-.1-.1 0-.1.1-.2.1zM27 16.6c-.1 0-.1.1-.2.1.1 0 .1 0 .2-.1zm.9-.5l-.1.1c0-.1.1-.1.1-.1zM24.7 14c.1-.1.1-.2.2-.2l-.2.2zm3.9 1.7c.1 0 .1-.1.2-.1-.1 0-.2 0-.2.1zm3.5-2.6c-.1 0-.1.1-.2.1.1 0 .2 0 .2-.1zm-.8.7s-.1.1-.2.1c.1 0 .1-.1.2-.1zm-5.7-.9c-.1 0-.1.1 0 0-.1.1-.1 0 0 0zm3.9 2.2s0-.1 0 0c0-.1 0 0 0 0zM27 6.8h.2-.2zm-2.1.3c-.1 0-.1.1-.2.1.1 0 .2 0 .2-.1zm9.6 10.7c-.2.2-.5.4-.7.5.2-.2.5-.4.7-.5zm.9-.8l.6-.6-.6.6zM33 18.9c.2-.2.5-.3.7-.5-.2.2-.5.3-.7.5zm2.3-1.8zm-13.9-6.5c.1-.1.2-.2.2-.3-.1.2-.1.2-.2.3zm1-1.1l-.2.2c.1-.1.2-.1.2-.2zm-2.1 2.3l-.3.3.3-.3zm-1 1.2c.1-.1.2-.3.3-.4-.1.1-.2.3-.3.4zm3.5-3.9l.2-.2c0 .1-.1.1-.2.2zm1.5-1.5l.2-.2c0 .1-.1.2-.2.2zm-.4.5l.2-.2c-.1 0-.1.1-.2.2zm-.3.2c-.1.1-.2.1-.2.2l.2-.2zm-2.9 3.1l.3-.3-.3.3zm-5.4 6.5c-.1.1-.2.3-.3.5.1-.2.2-.4.3-.5zm-.7.9c-.1.2-.2.3-.3.5.1-.2.2-.3.3-.5zm4-5c.1-.1.2-.3.3-.4-.1.1-.2.3-.3.4zm-2.9 3.6c.1-.1.2-.3.3-.4-.1.1-.2.3-.3.4zm2.5-3.1c-.1.1-.2.3-.3.4.1-.2.2-.3.3-.4zm-.7.8c-.1.1-.2.3-.3.4 0-.1.1-.2.3-.4zm-.8.9c-.1.1-.2.3-.3.4.1-.1.2-.2.3-.4zm15.5 3.5c.3-.2.5-.3.8-.5-.3.1-.6.3-.8.5zm4.6-3.8c.2-.2.4-.4.5-.6-.2.1-.3.4-.5.6zm2.7-5.5v-.8c.1.2.1.5 0 .8zm-29.1 6.2c-.2.2-.7.5-1.1.8.4-.2.9-.5 1.1-.8l.1-.1-.1.1zM39.1 12c-.1.2-.2.5-.3.7.1-.3.2-.5.3-.7zm-.8 1.6c-.1.2-.3.4-.4.7.2-.3.3-.5.4-.7zm.1-.1c.1-.2.2-.4.4-.7-.1.2-.3.4-.4.7zm.9-2.3c-.1.2-.1.5-.2.7.1-.2.2-.5.2-.7zm.2-.9c0 .3-.1.5-.1.7 0-.2.1-.4.1-.7zm-1.6 4c-.1.2-.3.4-.5.6.2-.2.3-.4.5-.6zM15 31.4c0 .1-.1.2-.1.3v-.2s.1 0 .1-.1zM36 7.2v-.4c-.1.1 0 .3 0 .4zM8.9 17.5c.1-.1.3-.2.4-.2-.2 0-.3.1-.4.2zm-.9.4c-.1.1-.3.1-.4.1.1 0 .3-.1.4-.1zm28.7-2.1l-.6.6.6-.6zm-12.6-1c0-.1.1-.1.1-.2 0 .1-.1.2-.1.2zm9.4-3c0 .1-.1.1 0 0-.1.1 0 .1 0 0zm-7.4 5.3c-.1 0-.1 0 0 0 0 0 .1 0 .1-.1l-.1.1zm-15.6-.8c.1-.1.2-.2.3-.1-.1 0-.2 0-.3.1zm21.2-12c.6 0 1.2.1 1.8.2-.6-.2-1.2-.2-1.8-.2zM28.1 10l-.1.1.1-.1zm-16 26.2c-1.1-.6-2.2-1.5-2.9-2.6.7 1.1 1.8 2 2.9 2.6zM22.4 9.5l.4-.4c-.1.1-.2.3-.4.4zM16 17c.1-.2.2-.3.4-.5-.1.1-.3.3-.4.5zm3.6-4.4l.4-.4-.4.4zm3.8-4l-.3.3.3-.3zM21 11.1c.1-.2.3-.3.4-.4-.2.1-.3.2-.4.4zm.6-.7l.6-.6c-.2.1-.4.3-.6.6zm-6.3 7.5c.1-.2.2-.3.4-.5-.1.2-.3.3-.4.5zm4-4.9l-.4.4.4-.4zm-2-4.9c-.6.3-1.2.6-1.7.9.5-.3 1.1-.6 1.7-.9zm3.4 3.3l-.4.4.4-.4zm-2.5 2.9c.1-.2.3-.3.4-.5-.2.2-.3.3-.4.5zM16.7 16c.1-.2.3-.3.4-.5-.1.2-.2.4-.4.5zm12.4-6.9c-.1.1-.3.2-.5.4.2-.2.4-.3.5-.4zm-1.6 1.5c.2-.2.3-.4.5-.5-.2.2-.3.4-.5.5zm4.7 8.9c-.1 0-.1.1-.2.1.1-.1.1-.1.2-.1zm-7 4.3h-1.4 1.4zM35.4 17s-.1.1 0 0c-.1.1 0 0 0 0zm-.9.8l.1-.1s-.1 0-.1.1zm1.6-1.4c-.1 0-.1 0 0 0-.1 0-.1 0 0 0zM32.9 19c0-.1.1-.1 0 0 .1-.1 0-.1 0 0zm-18.3-.2c.1-.2.2-.3.4-.5-.1.2-.3.4-.4.5zm19.1-.4l.1-.1-.1.1zM15.5 29.9c.2-.5.4-.9.6-1.4-.3.5-.5.9-.6 1.4zm2.3-15.2c-.1.2-.3.3-.4.5.2-.2.3-.4.4-.5zm12.5-.2zm9.2-4.3zm-.9-4.6c-.2-.5-.5-.9-.9-1.4.3.4.6.9.9 1.4zm-9.1 9.5c-.2.2-.5.3-.7.5.2-.2.5-.4.7-.5zm1-.7c.2-.1.4-.3.6-.4-.2.1-.4.2-.6.4zm1.6-1.3c.2-.2.4-.3.5-.5-.1.2-.3.4-.5.5zm-.8.7c.2-.2.5-.4.7-.6-.3.2-.5.4-.7.6zm-5.8-.8c-.2.3-.4.5-.6.8.2-.3.4-.6.6-.8zm-.8 1c-.2.2-.3.4-.5.6.2-.1.3-.4.5-.6zm-1.1-5.7l.3-.3c-.1.2-.2.2-.3.3zm2.6 8.8l.6-.3-.6.3zm2.4-1.4c-.2.1-.4.3-.7.4.2-.1.4-.3.7-.4zm10-10.1c.2.5.4.9.6 1.4-.2-.5-.4-1-.6-1.4zm.6 1.3c.2.7.3 1.3.4 1.9-.1-.5-.2-1.2-.4-1.9zM27 16.6c.3-.1.5-.3.8-.5-.3.2-.6.4-.8.5zm8.8-14.3c.5.4 1 .8 1.4 1.2-.5-.4-.9-.8-1.4-1.2zM15.6 9zm19-4.1c-.1-.1-.3-.1-.4-.2.1 0 .3.1.4.2zm-23.5 7c-.4.3-.8.7-1.2 1 .3-.3.7-.6 1.2-1zm-1.3 1c-.4.3-.7.7-1.1 1 .4-.3.8-.6 1.1-1zM25.7 5c-1 .2-2 .5-2.9.8 1-.3 1.9-.6 2.9-.8zm-8.4 3.1zm16.2 3.7c.2-.2.3-.4.5-.5l-.5.5zm.5-7.2c-.2-.1-.3-.1-.5-.1.1 0 .3 0 .5.1zM7.5 15.3c.4-.5.8-.9 1.3-1.4-.5.5-1 1-1.3 1.4zm27.1-4.8c.1-.2.3-.4.4-.6-.1.2-.2.4-.4.6zm-.1.1c-.1.2-.3.4-.4.5.2-.1.3-.3.4-.5zm-23.6 5.6s-.1 0 0 0c-.1 0 0 0 0 0zm24.6-7.1c.1-.2.2-.4.2-.6-.1.2-.1.4-.2.6zm-.1.2c-.1.2-.2.3-.3.5.1-.2.2-.4.3-.5zm-27.9 6c-.2.3-.5.6-.6.9.1-.3.3-.6.6-.9zm28.2-6.9c.1-.2.1-.3.1-.5 0 .2 0 .4-.1.5zm-4-4.1c-1.3 0-2.6.1-4 .3 1.3-.2 2.7-.3 4-.3zM27.5 7c.1 0 .1.1.2.1 0-.1-.1-.1-.2-.1zm-.4-.2c.1 0 .1 0 .2.1 0 0-.1 0-.2-.1zm-.1 0h-.2.2zm-.8-.1h.3-.3zm1.9.5c-.1 0-.1-.1-.2-.1 0 .1.1.1.2.1zm.1.1c.1 0 .1.1.1.1s-.1 0-.1-.1zm8.6 8.4l-.1.1c0-.1 0-.1.1-.1zM25.1 7c-.1 0-.1.1-.2.1.1 0 .1-.1.2-.1zm-1 .9l.2-.2-.2.2zm8.7 4.6l.6-.6-.6.6zm-8.3-5c.1-.1.2-.1.2-.2l-.2.2zm4.1.2l-.1-.1.1.1zm7.4-.5c0 .2 0 .4-.1.6 0-.2.1-.4.1-.6zm-10-.5h-.1.1c-.1 0 0 0 0 0zm9.1-1.5c.2.2.4.4.5.6-.1-.2-.3-.4-.5-.6zm-7 4.8c.1-.1.2-.2.4-.3-.1 0-.2.1-.4.3zm9.3 4.9c0 .1-.1.1 0 0-.1.1 0 .1 0 0zm-11.3-2.7c-.2.2-.4.4-.5.7.2-.2.3-.5.5-.7zm13-.2c0-.1 0-.1 0 0 0-.1 0-.1 0 0zm-.3.8s0-.1.1-.1c-.1 0-.1 0-.1.1zm.5-1.6v-.1c.1 0 .1 0 0 .1zm-13 .8c.1-.2.3-.3.4-.5-.1.2-.3.3-.4.5zm2.9-3.2s0 .1 0 0c0 .1 0 0 0 0zm-1.7 1.9l-.6.6.6-.6zM29 8.3s0-.1-.1-.1l.1.1zm-.1-.2l-.1-.1c.1 0 .1.1.1.1zm-.1-.2l-.1-.1.1.1zm.4.7zm-.1-.2zm9.2 5.2l.1-.1-.1.1zm1.3-4.2c0 .3 0 .5-.1.8v.1c0 .2-.1.5-.1.7v.1c-.1.2-.1.5-.2.7-.1.2-.2.5-.3.7 0 0 0 .1-.1.1-.1.2-.2.5-.4.7l-.1.1c-.1.2-.3.4-.4.7v.1c-.1.2-.3.4-.5.6l-.1.1c-.2.2-.4.4-.5.6l-.1.1-.6.6-.1.1-.6.6-.1.1c-.2.2-.4.4-.7.6l-.1.1c-.2.2-.5.4-.7.5l-.1.1c-.2.2-.5.3-.7.5 0 0-.1 0-.1.1-.2.2-.5.3-.8.5-.1 0-.1.1-.1.1-.2.2-.5.3-.8.5l-.1.1c-.2.2-.5.3-.7.5-.9.5-1.8 1.1-2.7 1.5h.3c.5.1 1.7.4 2.8 1.4 2.6 2.4 3.2 5 3.5 7.6.3 2.9 0 5.8-1.2 8.4-1.3 3.1-3.6 5.8-6.2 7.9-2.8 2.2-6 3.8-9.4 4.8-3.1.9-6.5 1.4-9.7.9-2.9-.4-6.3-2.2-6.3-5.6 0-2.9 2.8-4.8 5.2-6 .3-.2.6-.3.9-.4 3.1-1.4 7-2.7 10.3-3.7 1.7-.5 5.3-1.7 7.2-2 .2 0 .9-.1 1.3 0 .2 0 .3.1.2.3-.3.2-.6.3-1 .5-2.1 1-4.7 2-6.6 2.8-2.4 1-4.8 2.1-7.1 3.3-.2.1-.5.2-.7.4-1.2.6-2.7 1.3-3.4 2.4-1.6 2.3 2.5 2.9 3.8 2.9 8.4-.5 13.5-5.2 15.6-7.6 2.4-2.9 4.8-7.5 3.7-11.7-.3-1.3-.9-2.5-1.9-3.6-.9-1-2.2-1.2-3.6-1.2H24c-.2 0-.5 0-.8.1-.6.1-1.2.3-2 .5-.2.1-.4.1-.7.2-.2.1-.4.1-.7.2-.4 0-.6.1-.8.1-.4.1-.7.1-1 .1h-.4v.1c-.2.5-.4.9-.7 1.3-.1.1-.1.3-.2.4-.2.4-.3.7-.5 1.1-.1.1-.1.3-.2.4-.2.5-.4.9-.6 1.4v.1c-.2.5-.3 1-.5 1.4 0 .1 0 .1-.1.1v.2c-.1.2-.1.4-.2.6 0 .1 0 .2-.1.2 0 .2-.1.3-.1.5v.2c-.1.7-.2 1.4 0 2 .1.5-.2.9-.6 1.1-.5.2-1.2.2-1.7-.1-1.1-.6-2.2-1.5-2.9-2.6-.2-.3-.3-.5-.4-.8-.1-.3-.2-.7-.3-1v-1.3c0-.2 0-.3.1-.5 0-.1 0-.2.1-.3 0-.1.1-.3.1-.4 0-.1.1-.2.1-.3 0-.2.1-.3.1-.5 0-.1.1-.2.1-.4.1-.1.1-.3.2-.5.1-.1.1-.3.2-.4.1-.2.1-.3.2-.5.1-.1.1-.3.2-.4l.2-.5c.1-.1.1-.3.2-.4.1-.2.2-.3.3-.5.1-.1.2-.3.2-.4.1-.2.2-.3.3-.5.1-.1.2-.3.3-.4.1-.2.2-.3.3-.5.1-.1.2-.3.3-.4.1-.2.2-.3.3-.5.1-.1.2-.3.3-.4.1-.2.2-.3.3-.5.1-.2.2-.3.3-.5.1-.2.2-.3.3-.5.1-.2.2-.3.3-.5.1-.2.2-.3.4-.5.1-.2.2-.3.3-.5.1-.2.2-.3.4-.5.1-.2.2-.3.3-.5.1-.2.2-.3.4-.5.1-.1.2-.3.3-.4.1-.2.2-.3.4-.5.1-.1.2-.3.3-.4.1-.2.2-.3.4-.5.1-.1.2-.3.3-.4.1-.2.2-.3.4-.5.1-.1.2-.3.3-.4.1-.2.2-.3.4-.4.1-.1.2-.3.3-.4.1-.1.2-.3.4-.4.1-.1.2-.2.3-.4l.4-.4.3-.3.4-.4.3-.3c.1-.2.3-.3.4-.4.1-.1.2-.2.2-.3l.6-.6.2-.2.4-.4.2-.2.3-.3c.1-.1.2-.1.2-.2l.3-.3.2-.2.2-.2.2-.2c.1-.1.2-.1.2-.2.1-.1.1-.1.2-.1s.1-.1.2-.1c.2-.2.5-.3.7-.3h1c.1 0 .1 0 .2.1.1 0 .1 0 .2.1.1 0 .1 0 .2.1.1 0 .1.1.2.1s.1.1.2.1.1.1.2.1.1.1.1.1c.1 0 .1.1.1.1l.1.1.1.1.1.1.1.1.1.1.1.1s0 .1.1.1c0 0 0 .1.1.1v.8s0 .1-.1.1c-.1.1-.3.2-.4.4l-.1.1-.4.4c-.1 0-.1.1-.2.1l-.5.5-.6.6-.2.2c-.1.2-.3.3-.4.5l-.2.2c-.2.2-.4.4-.5.7l-.1.1c-.2.3-.4.5-.6.8-.1.1-.1.2-.2.2-.2.2-.3.4-.5.6 0 .1-.1.1-.1.1-1 1.3-2 2.8-3 4.3 1.3-.3 3.1-1 5-2 0 0 .1 0 .1-.1l.6-.3c.1 0 .1-.1.2-.1.3-.1.5-.3.8-.5.1 0 .1-.1.1-.1.2-.1.4-.3.7-.4.1 0 .1-.1.2-.1.2-.2.5-.3.7-.5.3-.2.5-.4.8-.5.1-.1.1-.1.2-.1.2-.1.4-.3.6-.4.1 0 .1-.1.1-.1.2-.2.5-.4.7-.6.1 0 .1-.1.2-.1.2-.2.4-.3.5-.5l.2-.2.6-.6.1-.1c.2-.2.3-.4.5-.5.1-.1.1-.1.1-.2.1-.2.3-.4.4-.5 0 0 0-.1.1-.1.1-.2.3-.4.4-.6 0-.1.1-.1.1-.2.1-.2.2-.3.3-.5l.1-.1c.1-.2.2-.4.2-.6v-.1c.1-.2.1-.3.1-.5v-.2c0-.2.1-.4.1-.6v-.4c0-.2-.1-.5-.2-.7 0-.1-.1-.2-.1-.3-.1-.2-.3-.4-.5-.6-.1-.1-.3-.2-.5-.3-.1-.1-.3-.1-.4-.2-.1 0-.1 0-.2-.1-.2-.1-.4-.1-.5-.1-.5-.1-1.1-.2-1.8-.2-1.3 0-2.6.1-4 .3-.7.1-1.3.2-2 .4-1 .2-2 .5-2.9.8-1.9.6-3.8 1.4-5.5 2.3-.6.3-1.2.6-1.7.9-1.7.9-3.2 1.9-4.5 2.9-.4.3-.8.7-1.2 1-.4.3-.7.7-1.1 1-.5.5-.9 1-1.3 1.4-.2.3-.5.6-.6.9-1.1 1.9-.4 2.1.8 1.8.1 0 .3-.1.4-.1.3-.1.6-.2.9-.4.1-.1.3-.2.4-.2.5-.3.9-.6 1.1-.8l.1-.1c.1-.1.2-.1.3-.1h.1c.1.1.1.2.1.5 0 .8-.4 1.9-1.1 2.8-.1.1-.2.3-.3.4l-.7.7c-.5.4-1.1.7-1.8.8-.3.1-.7.1-1 0-.9-.1-1.9-.8-2.6-1.7-1.3-1.6-2.2-3.9-2.2-5C.9 7.4 18.8-.7 30.3.6c.9.1 1.7.3 2.4.5s1.4.5 2 .9c.3.2.6.3.8.5.5.4 1 .8 1.4 1.2.2.2.4.4.6.7.3.4.6.9.9 1.4.2.5.4.9.6 1.4.2.7.3 1.3.4 1.9.2-.1.2.1.2.3zM15.5 29.9c.2-.5.4-.9.6-1.4-.3.5-.5.9-.6 1.4zm59 9.9c.2.4 0 .4-.3.4-3.4-.1-6.7.1-10.1.5-3.4.3-6.7.9-10 1.6-3.3.7-6.6 1.6-9.8 2.6-1.6.5-3.2 1.1-4.7 1.7-.7.3-1.4.6-2.1.8-.3.1-.5.2-.8.3h-.2c-.1.1-.2.1-.3.2 0 0-.1 0-.1.1 0 0-.1 0-.1.1 0 0-.1 0-.1.1 0 0-.1 0-.1.1-.3.2-.6.4-.9.7-.2.2-.5.2-.7.1-.3-.1-.5-.4-.6-.8 0-.2-.1-.4-.1-.6 0-.5 0-1 .1-1.5.1-.2.1-.3.2-.5s.2-.3.4-.5l.2-.2c.1-.1.2-.2.3-.2.4-.2.8-.4 1.2-.5.8-.3 1.6-.7 2.5-.9 1.7-.6 3.3-1.1 5-1.6l2.5-.7 2.5-.6L51 40l2.6-.5c3.4-.6 6.9-1 10.4-1.1 1.9-.1 3.9 0 5.8.2.7.1 1.4.2 2.1.4.6.1 1.3.2 1.9.5.2.1.5.2.7.4-.1-.2-.1-.1 0-.1z" fill="#FFF"/></symbol><symbol viewBox="0 0 27 30" id="avatar" xmlns="http://www.w3.org/2000/svg"><g fill="#4EB600"><path d="M13.448 16.161h.199c1.82-.03 3.294-.67 4.382-1.894 2.393-2.696 1.995-7.317 1.951-7.758-.155-3.31-1.721-4.894-3.014-5.633C16.002.323 14.877.025 13.622 0h-.106c-.69 0-2.045.112-3.344.85-1.305.74-2.896 2.324-3.052 5.66-.043.44-.44 5.061 1.952 7.757 1.082 1.224 2.555 1.863 4.376 1.894zM8.78 6.665c0-.019.006-.038.006-.05.205-4.454 3.369-4.932 4.724-4.932h.075c1.678.037 4.53.72 4.723 4.932 0 .019 0 .037.006.05.007.043.442 4.267-1.535 6.49-.783.882-1.827 1.317-3.2 1.33h-.062c-1.368-.013-2.419-.448-3.196-1.33-1.97-2.21-1.547-6.453-1.541-6.49z"/><path d="M26.32 23.826v-.019c0-.05-.006-.099-.006-.155-.037-1.23-.118-4.105-2.816-5.025l-.062-.018c-2.803-.715-5.134-2.33-5.159-2.348a.839.839 0 1 0-.963 1.373c.105.074 2.58 1.795 5.675 2.59 1.448.515 1.61 2.062 1.653 3.478 0 .056 0 .105.006.155.006.56-.031 1.423-.13 1.92-1.007.57-4.954 2.546-10.958 2.546-5.98 0-9.951-1.981-10.964-2.553-.1-.497-.143-1.36-.131-1.92 0-.049.006-.098.006-.154.044-1.416.205-2.963 1.654-3.479 3.095-.795 5.569-2.521 5.674-2.59a.839.839 0 0 0-.963-1.373c-.025.02-2.343 1.634-5.159 2.348a.783.783 0 0 0-.062.02c-2.698.925-2.778 3.8-2.816 5.024 0 .056 0 .106-.006.155v.019c-.006.323-.012 1.981.317 2.814a.797.797 0 0 0 .323.39c.187.125 4.656 2.97 12.133 2.97 7.477 0 11.946-2.851 12.133-2.97a.831.831 0 0 0 .323-.39c.31-.827.304-2.485.298-2.808z"/></g></symbol><symbol viewBox="0 0 53.906 53.906" id="cereals" xmlns="http://www.w3.org/2000/svg"><path d="M21.904 25.228a1 1 0 0 0 1-1V20.57c0-.149-.012-.296-.022-.442l.308.308a.997.997 0 0 0 1.414 0l.324-.324c-.011.152-.023.304-.023.459v3.658a1 1 0 0 0 1 1h3.658a6.349 6.349 0 0 0 6.342-6.341v-3.659a1 1 0 0 0-1-1h-3.658c-.828 0-1.617.164-2.343.454a6.339 6.339 0 0 0-1.713-5.802l-2.587-2.587a.999.999 0 0 0-1.414 0L20.602 8.88a6.337 6.337 0 0 0-1.714 5.795 6.29 6.29 0 0 0-2.326-.448h-3.658a1 1 0 0 0-1 1v3.659a6.349 6.349 0 0 0 6.342 6.341h3.658zm12-9v2.659a4.346 4.346 0 0 1-4.342 4.341h-2.658V20.57a4.347 4.347 0 0 1 4.342-4.342h2.658zm-11.888-5.934l1.88-1.88 1.88 1.88a4.348 4.348 0 0 1 0 6.14l-1.88 1.88-1.88-1.88a4.348 4.348 0 0 1 0-6.14zm-8.112 8.593v-2.659h2.658a4.347 4.347 0 0 1 4.342 4.342v2.658h-2.658a4.347 4.347 0 0 1-4.342-4.341zm13 14.113c-1.654 0-3 1.346-3 3h2a1.001 1.001 0 0 1 2 0h2c0-1.654-1.346-3-3-3zm8 1c-1.654 0-3 1.346-3 3h2a1.001 1.001 0 0 1 2 0h2c0-1.654-1.346-3-3-3z"/><path d="M42.419 30.198l3.451-12.94a1.02 1.02 0 0 0 .034-.258c0-1.103-.897-2-2-2h-2c-.365 0-.705.104-1 .275V1a1 1 0 0 0-1-1H8.91l-.015.003L8.88 0H1.904a1 1 0 0 0-1 1v46c0 .399.238.761.605.919l6.976 3c.127.054.261.081.395.081l.018-.002.012.002h15.314a18.651 18.651 0 0 0 9.992 2.906c10.358 0 18.786-8.427 18.786-18.785v-.104c0-2.985-6.174-4.277-10.583-4.819zM41.904 17h1.965l-3.681 13.805v.002a.004.004 0 0 1-.001.003l-.596 2.289a1 1 0 0 0 1.935.504l.377-1.448c6.826.805 9.099 2.385 9.099 2.863 0 .984-5.711 3.293-16.786 3.293-11.075 0-16.786-2.309-16.786-3.293 0-.985 5.711-3.294 16.786-3.294.592 0 1.159.023 1.735.038l-.187.744a1 1 0 1 0 1.94.488l.49-1.946 3.677-13.79a1.02 1.02 0 0 0 .033-.258zM7.88 48.481l-4.976-2.14V2H7.88v46.481zM21.568 49H9.91V2h28.994v18.619l-2.438 9.143a71.973 71.973 0 0 0-2.25-.038c-6.498 0-18.786 1.106-18.786 5.294v.104c0 .66.036 1.312.103 1.954.02.191.061.377.087.567.06.448.12.896.212 1.333.052.249.128.489.189.735.093.368.18.737.294 1.096.091.286.205.562.309.842.113.304.22.612.348.908.131.303.283.596.43.892.129.26.253.523.394.776.167.301.352.59.535.881.148.235.294.472.452.7.194.279.401.547.61.816.178.229.356.457.544.677.207.242.424.476.644.709.222.235.447.464.681.687.107.098.199.208.306.305zm12.649 2.906a16.684 16.684 0 0 1-9.252-2.793c-.127-.084-.249-.174-.373-.261-.286-.201-.567-.41-.84-.628-.099-.079-.201-.156-.298-.238-.356-.298-.7-.61-1.029-.936-.061-.061-.12-.123-.18-.185a16.551 16.551 0 0 1-.935-1.029l-.054-.063a16.698 16.698 0 0 1-1.006-1.362 16.818 16.818 0 0 1-1.438-2.643l-.099-.231a16.389 16.389 0 0 1-.507-1.382c-.019-.059-.034-.12-.052-.179-.13-.427-.241-.863-.336-1.304-.019-.088-.041-.175-.059-.264-.046-.229-.07-.464-.107-.696 3.84 1.994 11.774 2.597 16.564 2.597 4.791 0 12.724-.603 16.564-2.597-1.252 8.027-8.191 14.194-16.563 14.194z"/></symbol><symbol viewBox="0 0 512 512" id="delivery-truck" xmlns="http://www.w3.org/2000/svg"><path d="M509.14 261.159c.203-.198.332-.318.332-.318l-75.734-86.458s-.185.08-.496.206a10.177 10.177 0 0 0-7.846-3.685h-65.199v-61.178c0-5.632-4.566-10.199-10.199-10.199H29.3c-5.633 0-10.199 4.567-10.199 10.199v224.04h-8.902C4.566 333.766 0 338.333 0 343.965s4.566 10.199 10.199 10.199h8.902v11.919c0 5.632 4.566 10.199 10.199 10.199h20.099c4.661 20.687 23.172 36.191 45.247 36.191s40.586-15.504 45.248-36.191h239.251v-.001c4.661 20.687 23.172 36.191 45.247 36.191s40.586-15.504 45.248-36.191h32.162c5.633 0 10.199-4.567 10.199-10.199v-97.851a10.16 10.16 0 0 0-2.861-7.072zM94.646 392.074c-14.332 0-25.992-11.661-25.992-25.992 0-14.331 11.66-25.992 25.992-25.992s25.993 11.661 25.993 25.992c-.001 14.331-11.66 25.992-25.993 25.992zm245.153-36.192H139.893c-4.661-20.687-23.172-36.191-45.248-36.191-22.075 0-40.586 15.504-45.247 36.191h-9.899v-44.947h300.299v44.947zm0-65.345h-300.3V119.924h300.299v170.613zm95.797-83.077l44.299 50.572h-44.299V207.46zm-11.205 184.614c-14.332 0-25.992-11.661-25.992-25.992 0-14.331 11.66-25.992 25.992-25.992s25.993 11.661 25.993 25.992c0 14.331-11.661 25.992-25.993 25.992zm67.211-36.192h-21.963c-4.661-20.687-23.172-36.191-45.248-36.191-22.075 0-40.586 15.504-45.247 36.191h-18.947V191.301h55v76.929c0 5.632 4.566 10.199 10.199 10.199h66.205v77.453z"/><path d="M315.155 259.059h-85.673c-5.633 0-10.199 4.567-10.199 10.199s4.566 10.199 10.199 10.199h85.673c5.633 0 10.199-4.567 10.199-10.199s-4.566-10.199-10.199-10.199zm-117.29 0h-6.12c-5.633 0-10.199 4.567-10.199 10.199s4.566 10.199 10.199 10.199h6.12c5.633 0 10.199-4.567 10.199-10.199s-4.566-10.199-10.199-10.199z"/></symbol><symbol viewBox="0 0 489.9 489.9" id="group" xmlns="http://www.w3.org/2000/svg"><path d="M340.6 209.05v37.7c0 7.1 2.8 13.7 7.6 18.7v12.8c0 5.5 4.4 9.9 9.9 9.9s9.9-4.4 9.9-9.9v-17.4c0-3.3-1.7-6.4-4.4-8.2-2-1.3-3.2-3.5-3.2-5.9v-37.7c0-13.2 10.8-24 24-24h8.1c13.2 0 24 10.8 24 24v37.7c0 2.4-1.2 4.6-3.2 5.9-2.8 1.8-4.4 4.9-4.4 8.2v36.3c0 4.4 2.6 8.5 6.5 10.4 4.7 2.3 29.1 14.6 51.7 33.1 1.9 1.6 3 3.9 3 6.5v15.9h-69.4c-5.5 0-9.9 4.4-9.9 9.9s4.4 9.9 9.9 9.9H480c5.5 0 9.9-4.4 9.9-9.9v-25.8c0-8.5-3.7-16.4-10.3-21.8-19.9-16.3-41.2-28.2-50.9-33.3v-26.7c4.8-5 7.6-11.6 7.6-18.7v-37.7c0-24.2-19.7-43.8-43.8-43.8h-8.1c-24.1.1-43.8 19.7-43.8 43.9zM9.9 382.85h80.5c5.5 0 9.9-4.4 9.9-9.9s-4.4-9.9-9.9-9.9H19.8v-15.9c0-2.5 1.1-4.9 3-6.5 22.5-18.5 47-30.9 51.7-33.1 4-1.9 6.5-6 6.5-10.4v-36.3c0-3.3-1.7-6.4-4.4-8.2-2-1.3-3.2-3.5-3.2-5.9v-37.7c0-13.2 10.8-24 24-24h8.1c13.2 0 24 10.8 24 24v37.7c0 2.4-1.2 4.6-3.2 5.9-2.8 1.8-4.4 4.9-4.4 8.2v18.2c0 5.5 4.4 9.9 9.9 9.9s9.9-4.4 9.9-9.9v-13.6c4.8-5 7.6-11.6 7.6-18.7v-37.7c0-24.2-19.7-43.8-43.8-43.8h-8.1c-24.2 0-43.8 19.7-43.8 43.8v37.7c0 7.1 2.8 13.7 7.6 18.7v26.7c-9.8 5.1-31 16.9-50.9 33.3-6.5 5.4-10.3 13.3-10.3 21.8v25.7c0 5.5 4.4 9.9 9.9 9.9z" data-original="#2C2F33" fill="#2c2f33"/><path d="M304.4 209.55v-48.7c0-29.7-24.1-53.8-53.8-53.8h-10.5c-29.7 0-53.8 24.1-53.8 53.8v48.7c0 8.8 3.6 17 9.8 23v37.5c-11.7 6-40.3 21.6-67 43.6-7.8 6.4-12.2 15.8-12.2 25.9v33.4c0 5.5 4.4 9.9 9.9 9.9h237c5.5 0 9.9-4.4 9.9-9.9v-33.4c0-10.1-4.4-19.5-12.2-25.9-26.7-21.9-55.3-37.6-67-43.6v-37.5c6.3-5.9 9.9-14.2 9.9-23zm44.6 119.4c3.2 2.6 5 6.5 5 10.6v23.5H136.8v-23.5c0-4.1 1.8-8 5-10.6 29.4-24.2 61.3-40.3 67.4-43.3 4.1-2 6.8-6.3 6.8-10.8v-47c0-3.3-1.7-6.4-4.4-8.2-3.4-2.3-5.4-6-5.4-10v-48.7c0-18.8 15.3-34 34-34h10.5c18.8 0 34 15.3 34 34v48.7c0 4-2 7.8-5.4 10-2.8 1.8-4.4 4.9-4.4 8.2v47c0 4.6 2.7 8.8 6.8 10.8 6 3 37.9 19.2 67.3 43.3z" data-original="#3C92CA" class="eactive-path" data-old_color="#0F0F0F" fill="#080808"/></symbol><symbol viewBox="0 0 40 40" id="inst" xmlns="http://www.w3.org/2000/svg"><g fill="none" fill-rule="evenodd"><circle fill="#FFF" cx="20.5" cy="20.5" r="18.5"/><g fill="#3C3C3C" fill-rule="nonzero"><path d="M25.891 10.613h-11.89a3.446 3.446 0 0 0-3.441 3.442v11.89A3.446 3.446 0 0 0 14 29.387h11.89a3.446 3.446 0 0 0 3.442-3.442v-11.89a3.446 3.446 0 0 0-3.442-3.442zM19.946 26.18a6.187 6.187 0 0 1-6.18-6.18 6.187 6.187 0 0 1 6.18-6.18 6.187 6.187 0 0 1 6.18 6.18 6.188 6.188 0 0 1-6.18 6.18zm6.38-11.082a1.464 1.464 0 0 1-1.463-1.462c0-.807.656-1.463 1.462-1.463.807 0 1.463.656 1.463 1.463 0 .806-.656 1.462-1.463 1.462z"/><path d="M19.946 16.432A3.573 3.573 0 0 0 16.377 20a3.574 3.574 0 0 0 3.57 3.569 3.573 3.573 0 0 0 3.568-3.57 3.573 3.573 0 0 0-3.569-3.567z"/><path d="M19.946 0C8.931 0 0 8.93 0 19.946c0 11.016 8.93 19.946 19.946 19.946 11.016 0 19.946-8.93 19.946-19.946C39.892 8.931 30.962 0 19.946 0zm11.998 25.945a6.06 6.06 0 0 1-6.053 6.053h-11.89a6.06 6.06 0 0 1-6.053-6.053v-11.89a6.06 6.06 0 0 1 6.053-6.053h11.89a6.06 6.06 0 0 1 6.053 6.053v11.89z"/></g></g></symbol><symbol viewBox="0 0 478.2 478.2" id="like" xmlns="http://www.w3.org/2000/svg"><path d="M457.575 325.1c9.8-12.5 14.5-25.9 13.9-39.7-.6-15.2-7.4-27.1-13-34.4 6.5-16.2 9-41.7-12.7-61.5-15.9-14.5-42.9-21-80.3-19.2-26.3 1.2-48.3 6.1-49.2 6.3h-.1c-5 .9-10.3 2-15.7 3.2-.4-6.4.7-22.3 12.5-58.1 14-42.6 13.2-75.2-2.6-97-16.6-22.9-43.1-24.7-50.9-24.7-7.5 0-14.4 3.1-19.3 8.8-11.1 12.9-9.8 36.7-8.4 47.7-13.2 35.4-50.2 122.2-81.5 146.3-.6.4-1.1.9-1.6 1.4-9.2 9.7-15.4 20.2-19.6 29.4-5.9-3.2-12.6-5-19.8-5h-61c-23 0-41.6 18.7-41.6 41.6v162.5c0 23 18.7 41.6 41.6 41.6h61c8.9 0 17.2-2.8 24-7.6l23.5 2.8c3.6.5 67.6 8.6 133.3 7.3 11.9.9 23.1 1.4 33.5 1.4 17.9 0 33.5-1.4 46.5-4.2 30.6-6.5 51.5-19.5 62.1-38.6 8.1-14.6 8.1-29.1 6.8-38.3 19.9-18 23.4-37.9 22.7-51.9-.4-8.1-2.2-15-4.1-20.1zm-409.3 122.2c-8.1 0-14.6-6.6-14.6-14.6V270.1c0-8.1 6.6-14.6 14.6-14.6h61c8.1 0 14.6 6.6 14.6 14.6v162.5c0 8.1-6.6 14.6-14.6 14.6h-61v.1zm383.7-133.9c-4.2 4.4-5 11.1-1.8 16.3 0 .1 4.1 7.1 4.6 16.7.7 13.1-5.6 24.7-18.8 34.6-4.7 3.6-6.6 9.8-4.6 15.4 0 .1 4.3 13.3-2.7 25.8-6.7 12-21.6 20.6-44.2 25.4-18.1 3.9-42.7 4.6-72.9 2.2h-1.4c-64.3 1.4-129.3-7-130-7.1h-.1l-10.1-1.2c.6-2.8.9-5.8.9-8.8V270.1c0-4.3-.7-8.5-1.9-12.4 1.8-6.7 6.8-21.6 18.6-34.3 44.9-35.6 88.8-155.7 90.7-160.9.8-2.1 1-4.4.6-6.7-1.7-11.2-1.1-24.9 1.3-29 5.3.1 19.6 1.6 28.2 13.5 10.2 14.1 9.8 39.3-1.2 72.7-16.8 50.9-18.2 77.7-4.9 89.5 6.6 5.9 15.4 6.2 21.8 3.9 6.1-1.4 11.9-2.6 17.4-3.5.4-.1.9-.2 1.3-.3 30.7-6.7 85.7-10.8 104.8 6.6 16.2 14.8 4.7 34.4 3.4 36.5-3.7 5.6-2.6 12.9 2.4 17.4.1.1 10.6 10 11.1 23.3.4 8.9-3.8 18-12.5 27z"/></symbol><symbol viewBox="0 0 40 40" id="ok" xmlns="http://www.w3.org/2000/svg"><g fill="none" fill-rule="evenodd"><circle fill="#3C3C3C" cx="20" cy="20" r="20"/><path d="M26.633 21.466c-.722.768-1.59 1.324-2.555 1.712-.911.366-1.91.55-2.9.673.15.169.22.252.314.348 1.342 1.4 2.69 2.791 4.028 4.194.456.478.551 1.071.3 1.627-.274.607-.888 1.007-1.491.964-.382-.028-.68-.224-.944-.5-1.013-1.057-2.046-2.095-3.038-3.172-.29-.313-.428-.254-.683.019a206.105 206.105 0 0 1-3.096 3.223c-.468.479-1.025.565-1.568.292-.577-.29-.943-.9-.915-1.515.02-.414.216-.732.491-1.015 1.33-1.375 2.654-2.754 3.979-4.132.088-.092.17-.189.297-.33-1.807-.197-3.437-.658-4.832-1.789-.173-.14-.352-.276-.51-.434-.61-.608-.672-1.305-.19-2.022.415-.614 1.108-.778 1.83-.426.14.068.273.154.4.245 2.6 1.853 6.172 1.904 8.783.083.258-.205.535-.373.855-.458.622-.166 1.204.071 1.538.636.382.646.377 1.276-.093 1.777z" fill="#FFF" fill-rule="nonzero"/><path d="M20.028 7c3.322.01 5.989 2.723 5.972 6.078-.017 3.277-2.727 5.933-6.044 5.922-3.283-.011-5.975-2.73-5.956-6.013A6.013 6.013 0 0 1 20.028 7z" fill="#FFF"/><path d="M20.02 16A2.98 2.98 0 0 0 23 12.993 2.986 2.986 0 0 0 20.004 10 2.991 2.991 0 0 0 17 13.03 2.987 2.987 0 0 0 20.02 16z" fill="#3C3C3C" fill-rule="nonzero"/></g></symbol><symbol viewBox="0 0 512 512" id="shield" xmlns="http://www.w3.org/2000/svg"><path d="M218.4 495.2c6.8 0 12.3-5.5 12.3-12.3 0-6.8-5.5-12.3-12.3-12.3-100.4 0-182-81.6-182-182V117.1l182-75.9 182 75.9v71.5c0 6.8 5.5 12.3 12.3 12.3s12.3-5.5 12.3-12.3V109c0-4.9-3-9.4-7.5-11.3L223.1 16.6c-3-1.3-6.4-1.3-9.4 0l-194.3 81c-4.6 1.9-7.5 6.4-7.5 11.3v179.7c0 113.9 92.6 206.6 206.5 206.6z"/><path d="M353.1 285.5c-35.2 0-63.9 28.6-63.9 63.9s28.6 63.9 63.9 63.9c35.2 0 63.9-28.6 63.9-63.9s-28.7-63.9-63.9-63.9zm0 103.2c-21.7 0-39.4-17.7-39.4-39.4s17.7-39.4 39.4-39.4 39.4 17.7 39.4 39.4-17.7 39.4-39.4 39.4z"/><path d="M411.2 244.3c-7.9-4.4-16.2-7.8-24.8-10.3v-10.5c0-11.7-9.5-21.1-21.1-21.1H341c-11.7 0-21.1 9.5-21.1 21.1V234c-8.6 2.5-16.9 5.9-24.8 10.3l-7.4-7.4c-4-4-9.3-6.2-14.9-6.2s-11 2.2-14.9 6.2L240.6 254c-4 4-6.2 9.3-6.2 14.9 0 5.7 2.2 11 6.2 14.9l7.4 7.4c-4.4 7.9-7.8 16.2-10.3 24.8h-10.5c-11.7 0-21.1 9.5-21.1 21.1v24.2c0 11.7 9.5 21.1 21.1 21.1h10.5c2.5 8.6 5.9 16.9 10.3 24.8l-7.4 7.4c-8.2 8.2-8.2 21.7 0 29.9l17.1 17.1c4 4 9.3 6.2 14.9 6.2s11-2.2 14.9-6.2l7.4-7.4c7.9 4.4 16.2 7.8 24.8 10.3V475c0 11.7 9.5 21.1 21.1 21.1H365c11.7 0 21.1-9.5 21.1-21.1v-10.5c8.6-2.5 16.9-5.9 24.8-10.3l7.4 7.4c4 4 9.3 6.2 14.9 6.2s11-2.2 14.9-6.2l17.1-17.1c4-4 6.2-9.3 6.2-15 0-5.6-2.2-11-6.2-14.9l-7.4-7.4c4.4-7.9 7.8-16.2 10.3-24.8H479c11.7 0 21.1-9.5 21.1-21.1v-24.2c0-11.7-9.5-21.1-21.1-21.1h-10.5c-2.5-8.6-5.9-16.9-10.3-24.8l7.4-7.4c4-4 6.2-9.3 6.2-15 0-5.6-2.2-11-6.2-14.9l-17.1-17.1c-4-4-9.3-6.2-14.9-6.2s-11 2.2-15 6.2l-7.4 7.5zm22.4 12.3L446 269l-11.9 11.9c-4.1 4.1-4.8 10.6-1.5 15.5 7 10.5 11.8 22.1 14.3 34.5 1.1 5.7 6.2 9.9 12 9.9h16.8v17.5h-16.8c-5.8 0-10.9 4.1-12 9.9-2.4 12.4-7.2 24-14.3 34.5-3.3 4.9-2.6 11.3 1.5 15.5l11.9 11.9-12.4 12.4-11.9-11.9c-4.1-4.1-10.6-4.8-15.5-1.5-10.5 7-22.1 11.8-34.5 14.3-5.7 1.1-9.9 6.2-9.9 12v16.8h-17.5v-16.8c0-5.9-4.1-10.9-9.9-12-12.4-2.4-24-7.2-34.5-14.3-4.9-3.3-11.3-2.6-15.5 1.5l-11.9 11.9-12.4-12.4 11.9-11.9c4.1-4.1 4.8-10.6 1.5-15.5-7-10.5-11.8-22.1-14.3-34.5-1.1-5.7-6.2-9.9-12-9.9h-16.8v-17.5h16.8c5.8 0 10.9-4.1 12-9.9 2.4-12.4 7.2-24 14.3-34.5 3.3-4.9 2.6-11.3-1.5-15.5L260.3 269l12.4-12.4 11.9 11.9c4.1 4.1 10.6 4.8 15.5 1.5 10.5-7 22.1-11.8 34.5-14.3 5.7-1.1 9.9-6.2 9.9-12v-16.8H362v16.8c0 5.8 4.1 10.9 9.9 12 12.4 2.5 24 7.3 34.5 14.3 4.9 3.3 11.3 2.6 15.5-1.5l11.7-11.9z"/></symbol><symbol viewBox="0 0 512 512" id="shield-ok" xmlns="http://www.w3.org/2000/svg"><path d="M305.4 206.6l-73.2 72.8-25.6-25.8c-4.8-4.8-12.5-4.8-17.3 0-4.8 4.8-4.8 12.5 0 17.3l34.2 34.4c2.4 2.4 5.5 3.6 8.7 3.6 3.1 0 6.2-1.2 8.6-3.6l81.9-81.4c4.8-4.8 4.8-12.5 0-17.3-4.7-4.7-12.5-4.8-17.3 0z"/><path d="M466.7 290V106.4c0-4.9-3-9.4-7.5-11.3L260.7 12.3c-3-1.3-6.4-1.3-9.4 0L52.8 95.1c-4.6 1.9-7.5 6.4-7.5 11.3V290c0 116.2 94.5 210.7 210.7 210.7S466.7 406.1 466.7 290zM256 476.2c-102.7 0-186.2-83.5-186.2-186.2V114.6L256 36.9l186.2 77.7V290c0 102.6-83.5 186.2-186.2 186.2z"/></symbol><symbol viewBox="0 0 201.387 201.387" id="shopping-bag" xmlns="http://www.w3.org/2000/svg"><path d="M129.413 24.885C127.389 10.699 115.041 0 100.692 0 91.464 0 82.7 4.453 77.251 11.916a3.413 3.413 0 1 0 5.51 4.026c4.171-5.707 10.873-9.115 17.93-9.115 10.974 0 20.415 8.178 21.963 19.021a3.417 3.417 0 0 0 3.862 2.898 3.415 3.415 0 0 0 2.897-3.861zm49.299 38.211l-10.24-17.067a3.409 3.409 0 0 0-2.927-1.657h-9.813a3.414 3.414 0 0 0 0 6.826h7.881l6.144 10.24H31.626l6.144-10.24h3.615a3.414 3.414 0 0 0 0-6.826h-5.547c-1.2 0-2.311.628-2.927 1.657l-10.24 17.067a3.417 3.417 0 0 0 2.927 5.171h150.187a3.414 3.414 0 0 0 2.927-5.171z"/><path d="M161.698 31.623a3.408 3.408 0 0 0-2.123-1.524l-46.531-10.883a3.42 3.42 0 0 0-2.579.423 3.416 3.416 0 0 0-1.522 2.123l-3.509 15a3.41 3.41 0 0 0 2.546 4.099 3.412 3.412 0 0 0 4.101-2.546l2.732-11.675 39.883 9.329-6.267 26.795a3.41 3.41 0 0 0 3.328 4.189 3.408 3.408 0 0 0 3.318-2.635L162.12 34.2a3.4 3.4 0 0 0-.422-2.577zm-59.201 8.069l-3.11-26.305a3.413 3.413 0 0 0-3.791-2.99l-57.09 6.748a3.414 3.414 0 0 0-2.988 3.791l5.185 43.873a3.414 3.414 0 1 0 6.78-.801l-4.785-40.486 50.311-5.946 2.708 22.915a3.413 3.413 0 1 0 6.78-.799z"/><path d="M129.492 63.556l-6.775-28.174a3.422 3.422 0 0 0-1.536-2.113 3.434 3.434 0 0 0-2.581-.406L63.613 46.087a3.414 3.414 0 0 0-2.521 4.117l3.386 14.082a3.414 3.414 0 0 0 6.637-1.596l-2.589-10.764 48.35-11.626 5.977 24.854a3.413 3.413 0 0 0 4.118 2.519 3.414 3.414 0 0 0 2.521-4.117z"/><path d="M179.197 64.679a3.415 3.415 0 0 0-3.41-3.238H25.6a3.414 3.414 0 0 0-3.41 3.238l-6.827 133.12a3.415 3.415 0 0 0 3.409 3.588h163.84c.935 0 1.83-.384 2.478-1.062a3.422 3.422 0 0 0 .934-2.526l-6.827-133.12zM22.364 194.56l6.477-126.293h143.701l6.477 126.293H22.364z"/><path d="M126.292 75.093c-5.647 0-10.24 4.593-10.24 10.24s4.593 10.24 10.24 10.24 10.24-4.593 10.24-10.24-4.593-10.24-10.24-10.24zm0 13.654c-1.883 0-3.413-1.531-3.413-3.413s1.531-3.413 3.413-3.413 3.413 1.531 3.413 3.413-1.531 3.413-3.413 3.413zm-51.2-13.654c-5.647 0-10.24 4.593-10.24 10.24s4.593 10.24 10.24 10.24 10.24-4.593 10.24-10.24-4.593-10.24-10.24-10.24zm0 13.654c-1.882 0-3.413-1.531-3.413-3.413s1.531-3.413 3.413-3.413 3.413 1.531 3.413 3.413-1.531 3.413-3.413 3.413z"/><path d="M126.292 85.333h-.263a3.414 3.414 0 0 0-3.15 4.729v17.457c0 12.233-9.953 22.187-22.187 22.187s-22.187-9.953-22.187-22.187V88.747a3.414 3.414 0 0 0-6.826 0v18.773c0 15.998 13.015 29.013 29.013 29.013s29.013-13.015 29.013-29.013V88.747a3.415 3.415 0 0 0-3.413-3.414z"/></symbol><symbol viewBox="0 0 32 30" id="shopping-basket" xmlns="http://www.w3.org/2000/svg"><path d="M30.33 10.115H18.588V1.207A1.17 1.17 0 0 0 17.42.039h-2.213a1.17 1.17 0 0 0-1.169 1.168v8.908H2.294c-.78 0-1.414.634-1.414 1.414v3.046c0 .78.634 1.413 1.414 1.413h.203l1.594 11.319a3.1 3.1 0 0 0 3.056 2.654h18.33a3.1 3.1 0 0 0 3.056-2.654l1.594-11.319h.203c.78 0 1.415-.634 1.415-1.413v-3.046c0-.78-.635-1.414-1.414-1.414zM15.268 1.268h2.09v11.735h-2.09V1.268zm12.049 25.868a1.864 1.864 0 0 1-1.838 1.596H7.147c-.92 0-1.71-.686-1.838-1.596l-1.57-11.148h25.146l-1.57 11.148zm3.199-12.561a.185.185 0 0 1-.184.184H2.294a.185.185 0 0 1-.184-.184v-3.046c0-.102.082-.185.184-.185h11.743v1.72a1.17 1.17 0 0 0 1.169 1.168h2.213a1.17 1.17 0 0 0 1.168-1.167v-1.72H30.33c.102 0 .185.082.185.184v3.046z" fill="#4EB600"/></symbol><symbol viewBox="0 0 480 480" id="storage" xmlns="http://www.w3.org/2000/svg"><path d="M480 172v-16h-32V44a7.998 7.998 0 0 0-7.996-8H264a7.998 7.998 0 0 0-8 7.996V156h-24V44a7.998 7.998 0 0 0-7.996-8H48a7.998 7.998 0 0 0-8 7.996V156H16V4H0v464a7.998 7.998 0 0 0 7.996 8H480v-16h-32V348a7.998 7.998 0 0 0-7.996-8H264a7.998 7.998 0 0 0-8 7.996V460h-24V348a7.998 7.998 0 0 0-7.996-8H48a7.998 7.998 0 0 0-8 7.996V460H16V324h464v-16h-32V196a7.998 7.998 0 0 0-7.996-8H264a7.998 7.998 0 0 0-8 7.996V308h-24V196a7.998 7.998 0 0 0-7.996-8H48a7.998 7.998 0 0 0-8 7.996V308H16V172h464zM336 52h32v32h-32V52zm-64 0h48v40a7.998 7.998 0 0 0 7.996 8H376a7.998 7.998 0 0 0 8-7.996V52h48v104H272V52zm-152 0h32v32h-32V52zm-64 0h48v40a7.998 7.998 0 0 0 7.996 8H160a7.998 7.998 0 0 0 8-7.996V52h48v104H56V52zm280 304h32v32h-32v-32zm-64 0h48v40a7.998 7.998 0 0 0 7.996 8H376a7.998 7.998 0 0 0 8-7.996V356h48v104H272V356zm-152 0h32v32h-32v-32zm-64 0h48v40a7.998 7.998 0 0 0 7.996 8H160a7.998 7.998 0 0 0 8-7.996V356h48v104H56V356zm280-144h32v32h-32v-32zm-64-8h48v48a7.998 7.998 0 0 0 7.996 8H376a7.998 7.998 0 0 0 8-7.996V204h48v104H272V204zm-152 0h32v32h-32v-32zm-64 0h48v40a7.998 7.998 0 0 0 7.996 8H160a7.998 7.998 0 0 0 8-7.996V204h48v104H56V204z"/></symbol><symbol viewBox="0 0 40 40" id="vk" xmlns="http://www.w3.org/2000/svg"><g fill="none" fill-rule="evenodd"><circle fill="#3C3C3C" fill-rule="nonzero" cx="20" cy="20" r="20"/><path d="M20.628 27.066s.415-.045.627-.274c.195-.21.189-.604.189-.604s-.027-1.845.83-2.116c.843-.268 1.927 1.783 3.076 2.571.868.597 1.529.466 1.529.466l3.071-.043s1.607-.099.845-1.362c-.062-.103-.444-.935-2.284-2.643-1.926-1.787-1.668-1.498.652-4.59 1.413-1.883 1.978-3.033 1.802-3.525-.169-.47-1.208-.345-1.208-.345l-3.458.021s-.257-.035-.447.079c-.186.111-.305.371-.305.371s-.548 1.457-1.278 2.697c-1.54 2.615-2.155 2.753-2.407 2.59-.585-.378-.44-1.52-.44-2.331 0-2.534.385-3.591-.748-3.865-.376-.09-.652-.15-1.614-.16-1.234-.013-2.278.004-2.87.293-.393.193-.696.622-.512.647.229.03.747.14 1.021.513.355.483.342 1.565.342 1.565s.204 2.984-.475 3.354c-.467.254-1.106-.265-2.479-2.637-.704-1.215-1.235-2.558-1.235-2.558s-.102-.252-.285-.386a1.436 1.436 0 0 0-.531-.214l-3.286.02s-.494.014-.675.228c-.161.191-.013.586-.013.586s2.573 6.02 5.486 9.053c2.672 2.78 5.705 2.598 5.705 2.598h1.375z" fill="#FFF"/></g></symbol></svg>